G04 #@! TF.GenerationSoftware,KiCad,Pcbnew,(5.1.5)-3*
G04 #@! TF.CreationDate,2020-06-08T21:14:36+01:00*
G04 #@! TF.ProjectId,MSXPI2,4d535850-4932-42e6-9b69-6361645f7063,rev?*
G04 #@! TF.SameCoordinates,Original*
G04 #@! TF.FileFunction,Paste,Top*
G04 #@! TF.FilePolarity,Positive*
%FSLAX46Y46*%
G04 Gerber Fmt 4.6, Leading zero omitted, Abs format (unit mm)*
G04 Created by KiCad (PCBNEW (5.1.5)-3) date 2020-06-08 21:14:36*
%MOMM*%
%LPD*%
G04 APERTURE LIST*
%ADD10R,1.925000X0.700000*%
%ADD11R,0.700000X1.925000*%
%ADD12R,1.500000X2.000000*%
%ADD13R,3.800000X2.000000*%
G04 APERTURE END LIST*
D10*
X159919600Y-43599100D03*
X159919600Y-44869100D03*
X159919600Y-46139100D03*
X159919600Y-47409100D03*
X159919600Y-48679100D03*
X159919600Y-49949100D03*
X159919600Y-51219100D03*
X159919600Y-52489100D03*
X159919600Y-53759100D03*
X159919600Y-55029100D03*
X159919600Y-56299100D03*
X159919600Y-57569100D03*
X159919600Y-58839100D03*
X159919600Y-60109100D03*
X159919600Y-61379100D03*
X159919600Y-62649100D03*
X159919600Y-63919100D03*
X159919600Y-65189100D03*
X159919600Y-66459100D03*
X159919600Y-67729100D03*
X159919600Y-68999100D03*
D11*
X158407100Y-70511600D03*
X157137100Y-70511600D03*
X155867100Y-70511600D03*
X154597100Y-70511600D03*
X153327100Y-70511600D03*
X152057100Y-70511600D03*
X150787100Y-70511600D03*
X149517100Y-70511600D03*
X148247100Y-70511600D03*
X146977100Y-70511600D03*
X145707100Y-70511600D03*
X144437100Y-70511600D03*
X143167100Y-70511600D03*
X141897100Y-70511600D03*
X140627100Y-70511600D03*
X139357100Y-70511600D03*
X138087100Y-70511600D03*
X136817100Y-70511600D03*
X135547100Y-70511600D03*
X134277100Y-70511600D03*
X133007100Y-70511600D03*
D10*
X131494600Y-68999100D03*
X131494600Y-67729100D03*
X131494600Y-66459100D03*
X131494600Y-65189100D03*
X131494600Y-63919100D03*
X131494600Y-62649100D03*
X131494600Y-61379100D03*
X131494600Y-60109100D03*
X131494600Y-58839100D03*
X131494600Y-57569100D03*
X131494600Y-56299100D03*
X131494600Y-55029100D03*
X131494600Y-53759100D03*
X131494600Y-52489100D03*
X131494600Y-51219100D03*
X131494600Y-49949100D03*
X131494600Y-48679100D03*
X131494600Y-47409100D03*
X131494600Y-46139100D03*
X131494600Y-44869100D03*
X131494600Y-43599100D03*
D11*
X158407100Y-42086600D03*
X157137100Y-42086600D03*
X155867100Y-42086600D03*
X154597100Y-42086600D03*
X153327100Y-42086600D03*
X152057100Y-42086600D03*
X150787100Y-42086600D03*
X149517100Y-42086600D03*
X148247100Y-42086600D03*
X146977100Y-42086600D03*
X133007100Y-42086600D03*
X134277100Y-42086600D03*
X135547100Y-42086600D03*
X136817100Y-42086600D03*
X138087100Y-42086600D03*
X139357100Y-42086600D03*
X140627100Y-42086600D03*
X141897100Y-42086600D03*
X143167100Y-42086600D03*
X144437100Y-42086600D03*
X145707100Y-42086600D03*
D12*
X88428800Y-67361200D03*
X93028800Y-67361200D03*
X90728800Y-67361200D03*
D13*
X90728800Y-61061200D03*
M02*
