M48
; DRILL file {KiCad (5.1.5)-3} date 08/06/2020 21:14:53
; FORMAT={-:-/ absolute / inch / decimal}
; #@! TF.CreationDate,2020-06-08T21:14:53+01:00
; #@! TF.GenerationSoftware,Kicad,Pcbnew,(5.1.5)-3
; #@! TF.FileFunction,Plated,1,2,PTH
FMAT,2
INCH
T1C0.0157
T2C0.0276
T3C0.0315
T4C0.0354
T5C0.0394
%
G90
G05
T1
X4.348Y-3.3085
X4.4248Y-3.2317
X5.1055Y-2.515
X5.1055Y-2.6155
X5.1055Y-2.666
X5.106Y-1.8175
X5.1065Y-1.862
X5.1065Y-2.567
X5.1075Y-2.4665
X5.108Y-1.9155
X5.1085Y-1.9675
X5.1085Y-2.018
X5.109Y-1.7175
X5.1095Y-2.3155
X5.1095Y-2.3655
X5.111Y-2.1165
X5.111Y-2.216
X5.112Y-2.164
X5.181Y-1.576
X5.245Y-2.068
X5.2585Y-2.6925
X5.285Y-1.5765
X5.312Y-1.8535
X5.381Y-1.5775
X5.435Y-1.578
X5.536Y-1.5755
X5.6365Y-1.746
X5.682Y-2.6925
X5.7385Y-2.5545
X5.741Y-2.6385
X5.931Y-1.9105
X5.9325Y-1.578
X5.9335Y-2.2815
X5.936Y-2.6925
X5.985Y-1.5765
X5.985Y-1.7345
X5.9995Y-1.5045
X6.055Y-1.91
X6.0565Y-1.732
X6.137Y-1.5775
X6.1605Y-2.6255
X6.216Y-2.5415
X6.2305Y-2.317
X6.2355Y-2.4655
X6.236Y-1.5765
X6.3355Y-1.572
X6.3625Y-1.952
X6.3632Y-1.8532
X6.366Y-2.1485
X6.37Y-2.3465
X6.371Y-2.065
X6.3735Y-2.5695
X6.3755Y-2.5155
T2
X4.598Y-1.2735
X4.798Y-1.2735
X3.32Y-1.456
X3.32Y-1.656
X3.52Y-1.456
X3.52Y-1.656
X3.616Y-1.452
X3.616Y-1.652
X3.422Y-1.458
X3.422Y-1.658
T3
X3.774Y-2.4996
X3.774Y-2.598
X3.366Y-2.488
X3.366Y-2.5864
T4
X4.3945Y-1.2655
X4.4945Y-1.2655
T5
X5.212Y-1.246
X5.212Y-1.346
X5.312Y-1.246
X5.312Y-1.346
X5.412Y-1.246
X5.412Y-1.346
X5.512Y-1.246
X5.512Y-1.346
X5.612Y-1.246
X5.612Y-1.346
X5.712Y-1.246
X5.712Y-1.346
X5.812Y-1.246
X5.812Y-1.346
X5.912Y-1.246
X5.912Y-1.346
X6.012Y-1.246
X6.012Y-1.346
X6.112Y-1.246
X6.112Y-1.346
X6.212Y-1.246
X6.212Y-1.346
X6.312Y-1.246
X6.312Y-1.346
X6.412Y-1.246
X6.412Y-1.346
X6.512Y-1.246
X6.512Y-1.346
X6.612Y-1.246
X6.612Y-1.346
X6.712Y-1.246
X6.712Y-1.346
X6.812Y-1.246
X6.812Y-1.346
X6.912Y-1.246
X6.912Y-1.346
X7.012Y-1.246
X7.012Y-1.346
X7.112Y-1.246
X7.112Y-1.346
X3.32Y-1.24
X3.32Y-1.34
X3.42Y-1.24
X3.42Y-1.34
X3.52Y-1.24
X3.52Y-1.34
X3.62Y-1.24
X3.62Y-1.34
X3.72Y-1.24
X3.72Y-1.34
T0
M30
