G04 #@! TF.GenerationSoftware,KiCad,Pcbnew,(5.1.5)-3*
G04 #@! TF.CreationDate,2020-06-08T21:14:36+01:00*
G04 #@! TF.ProjectId,MSXPI2,4d535850-4932-42e6-9b69-6361645f7063,rev?*
G04 #@! TF.SameCoordinates,Original*
G04 #@! TF.FileFunction,Legend,Top*
G04 #@! TF.FilePolarity,Positive*
%FSLAX46Y46*%
G04 Gerber Fmt 4.6, Leading zero omitted, Abs format (unit mm)*
G04 Created by KiCad (PCBNEW (5.1.5)-3) date 2020-06-08 21:14:36*
%MOMM*%
%LPD*%
G04 APERTURE LIST*
%ADD10C,0.010000*%
%ADD11C,0.120000*%
%ADD12C,0.100000*%
%ADD13C,0.150000*%
G04 APERTURE END LIST*
D10*
G36*
X120750199Y-59122174D02*
G01*
X120791219Y-59157756D01*
X120798167Y-59220100D01*
X120787097Y-59291671D01*
X120737281Y-59320970D01*
X120650000Y-59325933D01*
X120549801Y-59318026D01*
X120508781Y-59282443D01*
X120501834Y-59220100D01*
X120512904Y-59148529D01*
X120562719Y-59119229D01*
X120650000Y-59114267D01*
X120750199Y-59122174D01*
G37*
X120750199Y-59122174D02*
X120791219Y-59157756D01*
X120798167Y-59220100D01*
X120787097Y-59291671D01*
X120737281Y-59320970D01*
X120650000Y-59325933D01*
X120549801Y-59318026D01*
X120508781Y-59282443D01*
X120501834Y-59220100D01*
X120512904Y-59148529D01*
X120562719Y-59119229D01*
X120650000Y-59114267D01*
X120750199Y-59122174D01*
G36*
X116283315Y-51470816D02*
G01*
X116468975Y-51733958D01*
X116612921Y-51932868D01*
X116720236Y-52073871D01*
X116796004Y-52163291D01*
X116845308Y-52207455D01*
X116873232Y-52212688D01*
X116876897Y-52209382D01*
X116904664Y-52171364D01*
X116973877Y-52075344D01*
X117076728Y-51932188D01*
X117205412Y-51752761D01*
X117352123Y-51547931D01*
X117364636Y-51530450D01*
X117548287Y-51279542D01*
X117702872Y-51080016D01*
X117823700Y-50937553D01*
X117906080Y-50857838D01*
X117932012Y-50843111D01*
X118011346Y-50833232D01*
X118155496Y-50825933D01*
X118349017Y-50821110D01*
X118576468Y-50818661D01*
X118822406Y-50818484D01*
X119071388Y-50820478D01*
X119307972Y-50824539D01*
X119516713Y-50830565D01*
X119682171Y-50838455D01*
X119788901Y-50848106D01*
X119820029Y-50855608D01*
X119833076Y-50866840D01*
X119838541Y-50884430D01*
X119832881Y-50913956D01*
X119812556Y-50960998D01*
X119774023Y-51031135D01*
X119713741Y-51129947D01*
X119628169Y-51263014D01*
X119513763Y-51435915D01*
X119366983Y-51654230D01*
X119184287Y-51923539D01*
X118962133Y-52249420D01*
X118696979Y-52637454D01*
X118585329Y-52800727D01*
X117908988Y-53789687D01*
X118559762Y-54748060D01*
X118865845Y-55199110D01*
X119127412Y-55585333D01*
X119347744Y-55911787D01*
X119530125Y-56183527D01*
X119677837Y-56405610D01*
X119794162Y-56583094D01*
X119882384Y-56721034D01*
X119945784Y-56824487D01*
X119987645Y-56898511D01*
X120011249Y-56948161D01*
X120019880Y-56978495D01*
X120017463Y-56993615D01*
X119967298Y-57010699D01*
X119839274Y-57023794D01*
X119631682Y-57032978D01*
X119342807Y-57038329D01*
X118999566Y-57039933D01*
X118010295Y-57039933D01*
X117545623Y-56373183D01*
X117391014Y-56152532D01*
X117244017Y-55944925D01*
X117114902Y-55764702D01*
X117013938Y-55626205D01*
X116953588Y-55546512D01*
X116826225Y-55386592D01*
X116505156Y-55824168D01*
X116348826Y-56038577D01*
X116178394Y-56274506D01*
X116017352Y-56499332D01*
X115917421Y-56640255D01*
X115650754Y-57018767D01*
X114660793Y-57030149D01*
X114379040Y-57031972D01*
X114125566Y-57030911D01*
X113912633Y-57027239D01*
X113752502Y-57021228D01*
X113657433Y-57013148D01*
X113636745Y-57007445D01*
X113651362Y-56963959D01*
X113712652Y-56854504D01*
X113818494Y-56682301D01*
X113966772Y-56450576D01*
X114155364Y-56162551D01*
X114382153Y-55821451D01*
X114645020Y-55430500D01*
X114941845Y-54992921D01*
X115270510Y-54511937D01*
X115423459Y-54289136D01*
X115555510Y-54095969D01*
X115645241Y-53959192D01*
X115698572Y-53865618D01*
X115721423Y-53802057D01*
X115719716Y-53755321D01*
X115699371Y-53712222D01*
X115689525Y-53696469D01*
X115641421Y-53624407D01*
X115555233Y-53498586D01*
X115441634Y-53334466D01*
X115311295Y-53147506D01*
X115257104Y-53070132D01*
X114892667Y-52550497D01*
X112783141Y-52562132D01*
X112306023Y-52564873D01*
X111906454Y-52567585D01*
X111577315Y-52570576D01*
X111311490Y-52574153D01*
X111101861Y-52578624D01*
X110941311Y-52584297D01*
X110822721Y-52591479D01*
X110738976Y-52600479D01*
X110682956Y-52611604D01*
X110647545Y-52625162D01*
X110625626Y-52641461D01*
X110613558Y-52655941D01*
X110565374Y-52758044D01*
X110554148Y-52825274D01*
X110556993Y-52889605D01*
X110570955Y-52939569D01*
X110605787Y-52977385D01*
X110671242Y-53005273D01*
X110777073Y-53025451D01*
X110933033Y-53040140D01*
X111148876Y-53051559D01*
X111434354Y-53061928D01*
X111620090Y-53067846D01*
X112037397Y-53083961D01*
X112381870Y-53105904D01*
X112665305Y-53137143D01*
X112899501Y-53181146D01*
X113096255Y-53241379D01*
X113267367Y-53321311D01*
X113424634Y-53424409D01*
X113579854Y-53554139D01*
X113714411Y-53683351D01*
X113954476Y-53980468D01*
X114126104Y-54314952D01*
X114229375Y-54674429D01*
X114264368Y-55046526D01*
X114231161Y-55418870D01*
X114129835Y-55779087D01*
X113960467Y-56114803D01*
X113723138Y-56413647D01*
X113696791Y-56439933D01*
X113378267Y-56703246D01*
X113043964Y-56884780D01*
X112689899Y-56986598D01*
X112620494Y-56997046D01*
X112518256Y-57004848D01*
X112340638Y-57012194D01*
X112096925Y-57018934D01*
X111796403Y-57024918D01*
X111448359Y-57029994D01*
X111062077Y-57034013D01*
X110646843Y-57036825D01*
X110211944Y-57038277D01*
X110066667Y-57038432D01*
X107823000Y-57039546D01*
X107645578Y-56415323D01*
X107568470Y-56142846D01*
X107485278Y-55846904D01*
X107405397Y-55561030D01*
X107338222Y-55318759D01*
X107331075Y-55292803D01*
X107276783Y-55105357D01*
X107228131Y-54955539D01*
X107190187Y-54857736D01*
X107168018Y-54826335D01*
X107167066Y-54827137D01*
X107149291Y-54875219D01*
X107112933Y-54994090D01*
X107061145Y-55172711D01*
X106997078Y-55400039D01*
X106923884Y-55665036D01*
X106846569Y-55949775D01*
X106553000Y-57039783D01*
X105741367Y-57039858D01*
X104929733Y-57039933D01*
X104885539Y-56902350D01*
X104862369Y-56822802D01*
X104821521Y-56674835D01*
X104766636Y-56471964D01*
X104701358Y-56227707D01*
X104629330Y-55955582D01*
X104587421Y-55796126D01*
X104515078Y-55522634D01*
X104448927Y-55277233D01*
X104392203Y-55071550D01*
X104348142Y-54917210D01*
X104319979Y-54825842D01*
X104311828Y-54805817D01*
X104303591Y-54798064D01*
X104295244Y-54798837D01*
X104284047Y-54816894D01*
X104267256Y-54860994D01*
X104242130Y-54939895D01*
X104205927Y-55062354D01*
X104155905Y-55237131D01*
X104089322Y-55472984D01*
X104003436Y-55778671D01*
X103970231Y-55896933D01*
X103891515Y-56177137D01*
X103819590Y-56432925D01*
X103757882Y-56652128D01*
X103709819Y-56822578D01*
X103678828Y-56932104D01*
X103669175Y-56965850D01*
X103655560Y-56990665D01*
X103624050Y-57009266D01*
X103563836Y-57022534D01*
X103464109Y-57031351D01*
X103314059Y-57036600D01*
X103102878Y-57039163D01*
X102819757Y-57039920D01*
X102761314Y-57039933D01*
X102452047Y-57038812D01*
X102218851Y-57035101D01*
X102053153Y-57028279D01*
X101946383Y-57017827D01*
X101889969Y-57003224D01*
X101875167Y-56986128D01*
X101886739Y-56922042D01*
X101921267Y-56777588D01*
X101978469Y-56553810D01*
X102058064Y-56251756D01*
X102159768Y-55872472D01*
X102283301Y-55417004D01*
X102428381Y-54886399D01*
X102594724Y-54281701D01*
X102782050Y-53603959D01*
X102944498Y-53018267D01*
X103550011Y-50838100D01*
X104268339Y-50827611D01*
X104509044Y-50826062D01*
X104721801Y-50828397D01*
X104891484Y-50834156D01*
X105002965Y-50842880D01*
X105039243Y-50851066D01*
X105063944Y-50899534D01*
X105106736Y-51018826D01*
X105164185Y-51197879D01*
X105232860Y-51425632D01*
X105309330Y-51691022D01*
X105388344Y-51976297D01*
X105468899Y-52270021D01*
X105544120Y-52539139D01*
X105610671Y-52772119D01*
X105665215Y-52957430D01*
X105704417Y-53083538D01*
X105724504Y-53138176D01*
X105737177Y-53163030D01*
X105747829Y-53180393D01*
X105759103Y-53182279D01*
X105773642Y-53160706D01*
X105794090Y-53107691D01*
X105823091Y-53015251D01*
X105863289Y-52875404D01*
X105917326Y-52680165D01*
X105987846Y-52421551D01*
X106077493Y-52091581D01*
X106106917Y-51983348D01*
X106188004Y-51690926D01*
X106264632Y-51425335D01*
X106333382Y-51197589D01*
X106390836Y-51018702D01*
X106433576Y-50899688D01*
X106458155Y-50851579D01*
X106513488Y-50841248D01*
X106633373Y-50832613D01*
X106801246Y-50825805D01*
X107000547Y-50820952D01*
X107214712Y-50818182D01*
X107427179Y-50817623D01*
X107621387Y-50819406D01*
X107780774Y-50823657D01*
X107888776Y-50830507D01*
X107928832Y-50840083D01*
X107928834Y-50840156D01*
X107939713Y-50882874D01*
X107970667Y-50998028D01*
X108019173Y-51176459D01*
X108082707Y-51409007D01*
X108158745Y-51686513D01*
X108244763Y-51999819D01*
X108338237Y-52339765D01*
X108436643Y-52697192D01*
X108537457Y-53062941D01*
X108638155Y-53427853D01*
X108736215Y-53782768D01*
X108829110Y-54118529D01*
X108914318Y-54425975D01*
X108989315Y-54695948D01*
X109051577Y-54919288D01*
X109098580Y-55086836D01*
X109116088Y-55148641D01*
X109162205Y-55310516D01*
X110757436Y-55295190D01*
X111119154Y-55290853D01*
X111455952Y-55285165D01*
X111758028Y-55278413D01*
X112015583Y-55270890D01*
X112218818Y-55262884D01*
X112357931Y-55254686D01*
X112423123Y-55246586D01*
X112425139Y-55245821D01*
X112504502Y-55169417D01*
X112533935Y-55059573D01*
X112513436Y-54948317D01*
X112443007Y-54867677D01*
X112425139Y-54858932D01*
X112363359Y-54848879D01*
X112229961Y-54837071D01*
X112037957Y-54824323D01*
X111800355Y-54811448D01*
X111530165Y-54799264D01*
X111379000Y-54793393D01*
X111018559Y-54779239D01*
X110729606Y-54764325D01*
X110498987Y-54745897D01*
X110313548Y-54721198D01*
X110160134Y-54687473D01*
X110025590Y-54641967D01*
X109896762Y-54581923D01*
X109760495Y-54504586D01*
X109637580Y-54428599D01*
X109358620Y-54206344D01*
X109123366Y-53916419D01*
X108973841Y-53653267D01*
X108918457Y-53536464D01*
X108880774Y-53438961D01*
X108857389Y-53339928D01*
X108844900Y-53218534D01*
X108839905Y-53053948D01*
X108839000Y-52827767D01*
X108839958Y-52599520D01*
X108845127Y-52434746D01*
X108857949Y-52312255D01*
X108881869Y-52210856D01*
X108920328Y-52109360D01*
X108975104Y-51990091D01*
X109178493Y-51655378D01*
X109447210Y-51360468D01*
X109765210Y-51121785D01*
X109892913Y-51050623D01*
X109983174Y-51006960D01*
X110074145Y-50969181D01*
X110172417Y-50936857D01*
X110284575Y-50909560D01*
X110417209Y-50886859D01*
X110576907Y-50868327D01*
X110770255Y-50853535D01*
X111003843Y-50842053D01*
X111284258Y-50833452D01*
X111618089Y-50827305D01*
X112011922Y-50823181D01*
X112472347Y-50820653D01*
X113005950Y-50819290D01*
X113454071Y-50818778D01*
X115825475Y-50816933D01*
X116283315Y-51470816D01*
G37*
X116283315Y-51470816D02*
X116468975Y-51733958D01*
X116612921Y-51932868D01*
X116720236Y-52073871D01*
X116796004Y-52163291D01*
X116845308Y-52207455D01*
X116873232Y-52212688D01*
X116876897Y-52209382D01*
X116904664Y-52171364D01*
X116973877Y-52075344D01*
X117076728Y-51932188D01*
X117205412Y-51752761D01*
X117352123Y-51547931D01*
X117364636Y-51530450D01*
X117548287Y-51279542D01*
X117702872Y-51080016D01*
X117823700Y-50937553D01*
X117906080Y-50857838D01*
X117932012Y-50843111D01*
X118011346Y-50833232D01*
X118155496Y-50825933D01*
X118349017Y-50821110D01*
X118576468Y-50818661D01*
X118822406Y-50818484D01*
X119071388Y-50820478D01*
X119307972Y-50824539D01*
X119516713Y-50830565D01*
X119682171Y-50838455D01*
X119788901Y-50848106D01*
X119820029Y-50855608D01*
X119833076Y-50866840D01*
X119838541Y-50884430D01*
X119832881Y-50913956D01*
X119812556Y-50960998D01*
X119774023Y-51031135D01*
X119713741Y-51129947D01*
X119628169Y-51263014D01*
X119513763Y-51435915D01*
X119366983Y-51654230D01*
X119184287Y-51923539D01*
X118962133Y-52249420D01*
X118696979Y-52637454D01*
X118585329Y-52800727D01*
X117908988Y-53789687D01*
X118559762Y-54748060D01*
X118865845Y-55199110D01*
X119127412Y-55585333D01*
X119347744Y-55911787D01*
X119530125Y-56183527D01*
X119677837Y-56405610D01*
X119794162Y-56583094D01*
X119882384Y-56721034D01*
X119945784Y-56824487D01*
X119987645Y-56898511D01*
X120011249Y-56948161D01*
X120019880Y-56978495D01*
X120017463Y-56993615D01*
X119967298Y-57010699D01*
X119839274Y-57023794D01*
X119631682Y-57032978D01*
X119342807Y-57038329D01*
X118999566Y-57039933D01*
X118010295Y-57039933D01*
X117545623Y-56373183D01*
X117391014Y-56152532D01*
X117244017Y-55944925D01*
X117114902Y-55764702D01*
X117013938Y-55626205D01*
X116953588Y-55546512D01*
X116826225Y-55386592D01*
X116505156Y-55824168D01*
X116348826Y-56038577D01*
X116178394Y-56274506D01*
X116017352Y-56499332D01*
X115917421Y-56640255D01*
X115650754Y-57018767D01*
X114660793Y-57030149D01*
X114379040Y-57031972D01*
X114125566Y-57030911D01*
X113912633Y-57027239D01*
X113752502Y-57021228D01*
X113657433Y-57013148D01*
X113636745Y-57007445D01*
X113651362Y-56963959D01*
X113712652Y-56854504D01*
X113818494Y-56682301D01*
X113966772Y-56450576D01*
X114155364Y-56162551D01*
X114382153Y-55821451D01*
X114645020Y-55430500D01*
X114941845Y-54992921D01*
X115270510Y-54511937D01*
X115423459Y-54289136D01*
X115555510Y-54095969D01*
X115645241Y-53959192D01*
X115698572Y-53865618D01*
X115721423Y-53802057D01*
X115719716Y-53755321D01*
X115699371Y-53712222D01*
X115689525Y-53696469D01*
X115641421Y-53624407D01*
X115555233Y-53498586D01*
X115441634Y-53334466D01*
X115311295Y-53147506D01*
X115257104Y-53070132D01*
X114892667Y-52550497D01*
X112783141Y-52562132D01*
X112306023Y-52564873D01*
X111906454Y-52567585D01*
X111577315Y-52570576D01*
X111311490Y-52574153D01*
X111101861Y-52578624D01*
X110941311Y-52584297D01*
X110822721Y-52591479D01*
X110738976Y-52600479D01*
X110682956Y-52611604D01*
X110647545Y-52625162D01*
X110625626Y-52641461D01*
X110613558Y-52655941D01*
X110565374Y-52758044D01*
X110554148Y-52825274D01*
X110556993Y-52889605D01*
X110570955Y-52939569D01*
X110605787Y-52977385D01*
X110671242Y-53005273D01*
X110777073Y-53025451D01*
X110933033Y-53040140D01*
X111148876Y-53051559D01*
X111434354Y-53061928D01*
X111620090Y-53067846D01*
X112037397Y-53083961D01*
X112381870Y-53105904D01*
X112665305Y-53137143D01*
X112899501Y-53181146D01*
X113096255Y-53241379D01*
X113267367Y-53321311D01*
X113424634Y-53424409D01*
X113579854Y-53554139D01*
X113714411Y-53683351D01*
X113954476Y-53980468D01*
X114126104Y-54314952D01*
X114229375Y-54674429D01*
X114264368Y-55046526D01*
X114231161Y-55418870D01*
X114129835Y-55779087D01*
X113960467Y-56114803D01*
X113723138Y-56413647D01*
X113696791Y-56439933D01*
X113378267Y-56703246D01*
X113043964Y-56884780D01*
X112689899Y-56986598D01*
X112620494Y-56997046D01*
X112518256Y-57004848D01*
X112340638Y-57012194D01*
X112096925Y-57018934D01*
X111796403Y-57024918D01*
X111448359Y-57029994D01*
X111062077Y-57034013D01*
X110646843Y-57036825D01*
X110211944Y-57038277D01*
X110066667Y-57038432D01*
X107823000Y-57039546D01*
X107645578Y-56415323D01*
X107568470Y-56142846D01*
X107485278Y-55846904D01*
X107405397Y-55561030D01*
X107338222Y-55318759D01*
X107331075Y-55292803D01*
X107276783Y-55105357D01*
X107228131Y-54955539D01*
X107190187Y-54857736D01*
X107168018Y-54826335D01*
X107167066Y-54827137D01*
X107149291Y-54875219D01*
X107112933Y-54994090D01*
X107061145Y-55172711D01*
X106997078Y-55400039D01*
X106923884Y-55665036D01*
X106846569Y-55949775D01*
X106553000Y-57039783D01*
X105741367Y-57039858D01*
X104929733Y-57039933D01*
X104885539Y-56902350D01*
X104862369Y-56822802D01*
X104821521Y-56674835D01*
X104766636Y-56471964D01*
X104701358Y-56227707D01*
X104629330Y-55955582D01*
X104587421Y-55796126D01*
X104515078Y-55522634D01*
X104448927Y-55277233D01*
X104392203Y-55071550D01*
X104348142Y-54917210D01*
X104319979Y-54825842D01*
X104311828Y-54805817D01*
X104303591Y-54798064D01*
X104295244Y-54798837D01*
X104284047Y-54816894D01*
X104267256Y-54860994D01*
X104242130Y-54939895D01*
X104205927Y-55062354D01*
X104155905Y-55237131D01*
X104089322Y-55472984D01*
X104003436Y-55778671D01*
X103970231Y-55896933D01*
X103891515Y-56177137D01*
X103819590Y-56432925D01*
X103757882Y-56652128D01*
X103709819Y-56822578D01*
X103678828Y-56932104D01*
X103669175Y-56965850D01*
X103655560Y-56990665D01*
X103624050Y-57009266D01*
X103563836Y-57022534D01*
X103464109Y-57031351D01*
X103314059Y-57036600D01*
X103102878Y-57039163D01*
X102819757Y-57039920D01*
X102761314Y-57039933D01*
X102452047Y-57038812D01*
X102218851Y-57035101D01*
X102053153Y-57028279D01*
X101946383Y-57017827D01*
X101889969Y-57003224D01*
X101875167Y-56986128D01*
X101886739Y-56922042D01*
X101921267Y-56777588D01*
X101978469Y-56553810D01*
X102058064Y-56251756D01*
X102159768Y-55872472D01*
X102283301Y-55417004D01*
X102428381Y-54886399D01*
X102594724Y-54281701D01*
X102782050Y-53603959D01*
X102944498Y-53018267D01*
X103550011Y-50838100D01*
X104268339Y-50827611D01*
X104509044Y-50826062D01*
X104721801Y-50828397D01*
X104891484Y-50834156D01*
X105002965Y-50842880D01*
X105039243Y-50851066D01*
X105063944Y-50899534D01*
X105106736Y-51018826D01*
X105164185Y-51197879D01*
X105232860Y-51425632D01*
X105309330Y-51691022D01*
X105388344Y-51976297D01*
X105468899Y-52270021D01*
X105544120Y-52539139D01*
X105610671Y-52772119D01*
X105665215Y-52957430D01*
X105704417Y-53083538D01*
X105724504Y-53138176D01*
X105737177Y-53163030D01*
X105747829Y-53180393D01*
X105759103Y-53182279D01*
X105773642Y-53160706D01*
X105794090Y-53107691D01*
X105823091Y-53015251D01*
X105863289Y-52875404D01*
X105917326Y-52680165D01*
X105987846Y-52421551D01*
X106077493Y-52091581D01*
X106106917Y-51983348D01*
X106188004Y-51690926D01*
X106264632Y-51425335D01*
X106333382Y-51197589D01*
X106390836Y-51018702D01*
X106433576Y-50899688D01*
X106458155Y-50851579D01*
X106513488Y-50841248D01*
X106633373Y-50832613D01*
X106801246Y-50825805D01*
X107000547Y-50820952D01*
X107214712Y-50818182D01*
X107427179Y-50817623D01*
X107621387Y-50819406D01*
X107780774Y-50823657D01*
X107888776Y-50830507D01*
X107928832Y-50840083D01*
X107928834Y-50840156D01*
X107939713Y-50882874D01*
X107970667Y-50998028D01*
X108019173Y-51176459D01*
X108082707Y-51409007D01*
X108158745Y-51686513D01*
X108244763Y-51999819D01*
X108338237Y-52339765D01*
X108436643Y-52697192D01*
X108537457Y-53062941D01*
X108638155Y-53427853D01*
X108736215Y-53782768D01*
X108829110Y-54118529D01*
X108914318Y-54425975D01*
X108989315Y-54695948D01*
X109051577Y-54919288D01*
X109098580Y-55086836D01*
X109116088Y-55148641D01*
X109162205Y-55310516D01*
X110757436Y-55295190D01*
X111119154Y-55290853D01*
X111455952Y-55285165D01*
X111758028Y-55278413D01*
X112015583Y-55270890D01*
X112218818Y-55262884D01*
X112357931Y-55254686D01*
X112423123Y-55246586D01*
X112425139Y-55245821D01*
X112504502Y-55169417D01*
X112533935Y-55059573D01*
X112513436Y-54948317D01*
X112443007Y-54867677D01*
X112425139Y-54858932D01*
X112363359Y-54848879D01*
X112229961Y-54837071D01*
X112037957Y-54824323D01*
X111800355Y-54811448D01*
X111530165Y-54799264D01*
X111379000Y-54793393D01*
X111018559Y-54779239D01*
X110729606Y-54764325D01*
X110498987Y-54745897D01*
X110313548Y-54721198D01*
X110160134Y-54687473D01*
X110025590Y-54641967D01*
X109896762Y-54581923D01*
X109760495Y-54504586D01*
X109637580Y-54428599D01*
X109358620Y-54206344D01*
X109123366Y-53916419D01*
X108973841Y-53653267D01*
X108918457Y-53536464D01*
X108880774Y-53438961D01*
X108857389Y-53339928D01*
X108844900Y-53218534D01*
X108839905Y-53053948D01*
X108839000Y-52827767D01*
X108839958Y-52599520D01*
X108845127Y-52434746D01*
X108857949Y-52312255D01*
X108881869Y-52210856D01*
X108920328Y-52109360D01*
X108975104Y-51990091D01*
X109178493Y-51655378D01*
X109447210Y-51360468D01*
X109765210Y-51121785D01*
X109892913Y-51050623D01*
X109983174Y-51006960D01*
X110074145Y-50969181D01*
X110172417Y-50936857D01*
X110284575Y-50909560D01*
X110417209Y-50886859D01*
X110576907Y-50868327D01*
X110770255Y-50853535D01*
X111003843Y-50842053D01*
X111284258Y-50833452D01*
X111618089Y-50827305D01*
X112011922Y-50823181D01*
X112472347Y-50820653D01*
X113005950Y-50819290D01*
X113454071Y-50818778D01*
X115825475Y-50816933D01*
X116283315Y-51470816D01*
G36*
X112373892Y-59177984D02*
G01*
X112431304Y-59386122D01*
X112479682Y-59525060D01*
X112532288Y-59607277D01*
X112602386Y-59645251D01*
X112703238Y-59651459D01*
X112848108Y-59638380D01*
X112861678Y-59636909D01*
X113157000Y-59604899D01*
X112896159Y-59560666D01*
X112687379Y-59509576D01*
X112551690Y-59434886D01*
X112478840Y-59327927D01*
X112458590Y-59191054D01*
X112775705Y-59191054D01*
X112776000Y-59198933D01*
X112830203Y-59223398D01*
X112939283Y-59238687D01*
X113013256Y-59241267D01*
X113209476Y-59270835D01*
X113346688Y-59356955D01*
X113420350Y-59495748D01*
X113432167Y-59599176D01*
X113436922Y-59697933D01*
X113448631Y-59747801D01*
X113451300Y-59749267D01*
X113483947Y-59717474D01*
X113546978Y-59635948D01*
X113595590Y-59567357D01*
X113667195Y-59458178D01*
X113694806Y-59388651D01*
X113683890Y-59329711D01*
X113651318Y-59271024D01*
X113615926Y-59218634D01*
X113574446Y-59185311D01*
X113508591Y-59166746D01*
X113400076Y-59158626D01*
X113230612Y-59156643D01*
X113165863Y-59156600D01*
X112961186Y-59160605D01*
X112829505Y-59172267D01*
X112775705Y-59191054D01*
X112458590Y-59191054D01*
X112458500Y-59190448D01*
X112484614Y-59034291D01*
X112562409Y-58921842D01*
X112609461Y-58879056D01*
X112660532Y-58849974D01*
X112732044Y-58831958D01*
X112840422Y-58822372D01*
X113002089Y-58818577D01*
X113209449Y-58817933D01*
X113752579Y-58817933D01*
X113831496Y-58951530D01*
X113910414Y-59085126D01*
X114021808Y-58948640D01*
X114105798Y-58860442D01*
X114188740Y-58825402D01*
X114311855Y-58825627D01*
X114490509Y-58839100D01*
X114321306Y-59093100D01*
X114238134Y-59222730D01*
X114177709Y-59326014D01*
X114152145Y-59382135D01*
X114151968Y-59384057D01*
X114174975Y-59433872D01*
X114236058Y-59532557D01*
X114323101Y-59660796D01*
X114344472Y-59690974D01*
X114537111Y-59960933D01*
X114333889Y-59960644D01*
X114204361Y-59953964D01*
X114123591Y-59922757D01*
X114055968Y-59849568D01*
X114029118Y-59811249D01*
X113927570Y-59662143D01*
X113821274Y-59811538D01*
X113740963Y-59908326D01*
X113658990Y-59951142D01*
X113534692Y-59960930D01*
X113531239Y-59960933D01*
X113403742Y-59952632D01*
X113353274Y-59923682D01*
X113373463Y-59868016D01*
X113400417Y-59836350D01*
X113405490Y-59820077D01*
X113354070Y-59848256D01*
X113326334Y-59866767D01*
X113245180Y-59910059D01*
X113136664Y-59941135D01*
X112982108Y-59963718D01*
X112762834Y-59981534D01*
X112745170Y-59982662D01*
X112545654Y-59996213D01*
X112412964Y-60001031D01*
X112329256Y-59988531D01*
X112276689Y-59950128D01*
X112237421Y-59877238D01*
X112193611Y-59761277D01*
X112173373Y-59707545D01*
X112146510Y-59646169D01*
X112125477Y-59644674D01*
X112097669Y-59711447D01*
X112077939Y-59771045D01*
X112021576Y-59911381D01*
X111956856Y-59980981D01*
X111864081Y-59993012D01*
X111773384Y-59974624D01*
X111715813Y-59923607D01*
X111674316Y-59825969D01*
X111673156Y-59820785D01*
X111639305Y-59691774D01*
X111608391Y-59645567D01*
X111576428Y-59680583D01*
X111546183Y-59770433D01*
X111509097Y-59878753D01*
X111458433Y-59929999D01*
X111363173Y-59949456D01*
X111322494Y-59952784D01*
X111215179Y-59953536D01*
X111154994Y-59939967D01*
X111150046Y-59931617D01*
X111162802Y-59880203D01*
X111194919Y-59763968D01*
X111241781Y-59599293D01*
X111298772Y-59402559D01*
X111308796Y-59368267D01*
X111463667Y-58839100D01*
X111609142Y-58839100D01*
X111709435Y-58848589D01*
X111761196Y-58893876D01*
X111792373Y-58987267D01*
X111833650Y-59117659D01*
X111871330Y-59164035D01*
X111908085Y-59126811D01*
X111945392Y-59011182D01*
X111979871Y-58893539D01*
X112019481Y-58836868D01*
X112085930Y-58819111D01*
X112135593Y-58817933D01*
X112277133Y-58817933D01*
X112373892Y-59177984D01*
G37*
X112373892Y-59177984D02*
X112431304Y-59386122D01*
X112479682Y-59525060D01*
X112532288Y-59607277D01*
X112602386Y-59645251D01*
X112703238Y-59651459D01*
X112848108Y-59638380D01*
X112861678Y-59636909D01*
X113157000Y-59604899D01*
X112896159Y-59560666D01*
X112687379Y-59509576D01*
X112551690Y-59434886D01*
X112478840Y-59327927D01*
X112458590Y-59191054D01*
X112775705Y-59191054D01*
X112776000Y-59198933D01*
X112830203Y-59223398D01*
X112939283Y-59238687D01*
X113013256Y-59241267D01*
X113209476Y-59270835D01*
X113346688Y-59356955D01*
X113420350Y-59495748D01*
X113432167Y-59599176D01*
X113436922Y-59697933D01*
X113448631Y-59747801D01*
X113451300Y-59749267D01*
X113483947Y-59717474D01*
X113546978Y-59635948D01*
X113595590Y-59567357D01*
X113667195Y-59458178D01*
X113694806Y-59388651D01*
X113683890Y-59329711D01*
X113651318Y-59271024D01*
X113615926Y-59218634D01*
X113574446Y-59185311D01*
X113508591Y-59166746D01*
X113400076Y-59158626D01*
X113230612Y-59156643D01*
X113165863Y-59156600D01*
X112961186Y-59160605D01*
X112829505Y-59172267D01*
X112775705Y-59191054D01*
X112458590Y-59191054D01*
X112458500Y-59190448D01*
X112484614Y-59034291D01*
X112562409Y-58921842D01*
X112609461Y-58879056D01*
X112660532Y-58849974D01*
X112732044Y-58831958D01*
X112840422Y-58822372D01*
X113002089Y-58818577D01*
X113209449Y-58817933D01*
X113752579Y-58817933D01*
X113831496Y-58951530D01*
X113910414Y-59085126D01*
X114021808Y-58948640D01*
X114105798Y-58860442D01*
X114188740Y-58825402D01*
X114311855Y-58825627D01*
X114490509Y-58839100D01*
X114321306Y-59093100D01*
X114238134Y-59222730D01*
X114177709Y-59326014D01*
X114152145Y-59382135D01*
X114151968Y-59384057D01*
X114174975Y-59433872D01*
X114236058Y-59532557D01*
X114323101Y-59660796D01*
X114344472Y-59690974D01*
X114537111Y-59960933D01*
X114333889Y-59960644D01*
X114204361Y-59953964D01*
X114123591Y-59922757D01*
X114055968Y-59849568D01*
X114029118Y-59811249D01*
X113927570Y-59662143D01*
X113821274Y-59811538D01*
X113740963Y-59908326D01*
X113658990Y-59951142D01*
X113534692Y-59960930D01*
X113531239Y-59960933D01*
X113403742Y-59952632D01*
X113353274Y-59923682D01*
X113373463Y-59868016D01*
X113400417Y-59836350D01*
X113405490Y-59820077D01*
X113354070Y-59848256D01*
X113326334Y-59866767D01*
X113245180Y-59910059D01*
X113136664Y-59941135D01*
X112982108Y-59963718D01*
X112762834Y-59981534D01*
X112745170Y-59982662D01*
X112545654Y-59996213D01*
X112412964Y-60001031D01*
X112329256Y-59988531D01*
X112276689Y-59950128D01*
X112237421Y-59877238D01*
X112193611Y-59761277D01*
X112173373Y-59707545D01*
X112146510Y-59646169D01*
X112125477Y-59644674D01*
X112097669Y-59711447D01*
X112077939Y-59771045D01*
X112021576Y-59911381D01*
X111956856Y-59980981D01*
X111864081Y-59993012D01*
X111773384Y-59974624D01*
X111715813Y-59923607D01*
X111674316Y-59825969D01*
X111673156Y-59820785D01*
X111639305Y-59691774D01*
X111608391Y-59645567D01*
X111576428Y-59680583D01*
X111546183Y-59770433D01*
X111509097Y-59878753D01*
X111458433Y-59929999D01*
X111363173Y-59949456D01*
X111322494Y-59952784D01*
X111215179Y-59953536D01*
X111154994Y-59939967D01*
X111150046Y-59931617D01*
X111162802Y-59880203D01*
X111194919Y-59763968D01*
X111241781Y-59599293D01*
X111298772Y-59402559D01*
X111308796Y-59368267D01*
X111463667Y-58839100D01*
X111609142Y-58839100D01*
X111709435Y-58848589D01*
X111761196Y-58893876D01*
X111792373Y-58987267D01*
X111833650Y-59117659D01*
X111871330Y-59164035D01*
X111908085Y-59126811D01*
X111945392Y-59011182D01*
X111979871Y-58893539D01*
X112019481Y-58836868D01*
X112085930Y-58819111D01*
X112135593Y-58817933D01*
X112277133Y-58817933D01*
X112373892Y-59177984D01*
G36*
X106059743Y-58826316D02*
G01*
X106154296Y-58841351D01*
X106207830Y-58881581D01*
X106243837Y-58970905D01*
X106259588Y-59029600D01*
X106290266Y-59141729D01*
X106311372Y-59181001D01*
X106333171Y-59156871D01*
X106351516Y-59114267D01*
X106391224Y-58999689D01*
X106410660Y-58923767D01*
X106448599Y-58860355D01*
X106544044Y-58830064D01*
X106578916Y-58826330D01*
X106731128Y-58813560D01*
X106831240Y-59201873D01*
X106890060Y-59410516D01*
X106948264Y-59547944D01*
X107020492Y-59626226D01*
X107121384Y-59657427D01*
X107265579Y-59653614D01*
X107364614Y-59641516D01*
X107611334Y-59607851D01*
X107400245Y-59574804D01*
X107212888Y-59542681D01*
X107090256Y-59511293D01*
X107012943Y-59471880D01*
X106961540Y-59415678D01*
X106931325Y-59363094D01*
X106886060Y-59199505D01*
X106888191Y-59190865D01*
X107230181Y-59190865D01*
X107230334Y-59198933D01*
X107284536Y-59223398D01*
X107393616Y-59238687D01*
X107467589Y-59241267D01*
X107664846Y-59270598D01*
X107801360Y-59357189D01*
X107874728Y-59498931D01*
X107887441Y-59609759D01*
X107888383Y-59770433D01*
X107970200Y-59664600D01*
X108047927Y-59554528D01*
X108103412Y-59463517D01*
X108133075Y-59370049D01*
X108103761Y-59273110D01*
X108098167Y-59262433D01*
X108067974Y-59214046D01*
X108028166Y-59183223D01*
X107960996Y-59166014D01*
X107848716Y-59158467D01*
X107673579Y-59156630D01*
X107622848Y-59156600D01*
X107417300Y-59160581D01*
X107284795Y-59172177D01*
X107230181Y-59190865D01*
X106888191Y-59190865D01*
X106924541Y-59043544D01*
X107018464Y-58920121D01*
X107065073Y-58878017D01*
X107116397Y-58849402D01*
X107188825Y-58831683D01*
X107298747Y-58822262D01*
X107462551Y-58818546D01*
X107663782Y-58817933D01*
X108206912Y-58817933D01*
X108285829Y-58951530D01*
X108364747Y-59085126D01*
X108476141Y-58948640D01*
X108560131Y-58860442D01*
X108643073Y-58825402D01*
X108766189Y-58825627D01*
X108944842Y-58839100D01*
X108775639Y-59093100D01*
X108692696Y-59221050D01*
X108632321Y-59320743D01*
X108606519Y-59372271D01*
X108606302Y-59373928D01*
X108628579Y-59419083D01*
X108687848Y-59515115D01*
X108772560Y-59643529D01*
X108797948Y-59680844D01*
X108989729Y-59960933D01*
X108784742Y-59960933D01*
X108652355Y-59953825D01*
X108568617Y-59922021D01*
X108497986Y-59849796D01*
X108480127Y-59826178D01*
X108380498Y-59691423D01*
X108268000Y-59826178D01*
X108174270Y-59917925D01*
X108073137Y-59955566D01*
X107978667Y-59960933D01*
X107854173Y-59952204D01*
X107806886Y-59921968D01*
X107830766Y-59864152D01*
X107854750Y-59836350D01*
X107859747Y-59821052D01*
X107808923Y-59850757D01*
X107778865Y-59871685D01*
X107715075Y-59911918D01*
X107646067Y-59937692D01*
X107552978Y-59951484D01*
X107416944Y-59955772D01*
X107219102Y-59953033D01*
X107168776Y-59951818D01*
X106687489Y-59939767D01*
X106639972Y-59770433D01*
X106604115Y-59669202D01*
X106572663Y-59647541D01*
X106541563Y-59707129D01*
X106512282Y-59823350D01*
X106484739Y-59913164D01*
X106434894Y-59952032D01*
X106333245Y-59960892D01*
X106318435Y-59960933D01*
X106214668Y-59955223D01*
X106158124Y-59922949D01*
X106121781Y-59841401D01*
X106104386Y-59781017D01*
X106054675Y-59601100D01*
X105993393Y-59781017D01*
X105949861Y-59892447D01*
X105901656Y-59944739D01*
X105820717Y-59960126D01*
X105766306Y-59960933D01*
X105661531Y-59955696D01*
X105604180Y-59942646D01*
X105600500Y-59937804D01*
X105611309Y-59890702D01*
X105640927Y-59777802D01*
X105685144Y-59614781D01*
X105739747Y-59417319D01*
X105754613Y-59364103D01*
X105908726Y-58813531D01*
X106059743Y-58826316D01*
G37*
X106059743Y-58826316D02*
X106154296Y-58841351D01*
X106207830Y-58881581D01*
X106243837Y-58970905D01*
X106259588Y-59029600D01*
X106290266Y-59141729D01*
X106311372Y-59181001D01*
X106333171Y-59156871D01*
X106351516Y-59114267D01*
X106391224Y-58999689D01*
X106410660Y-58923767D01*
X106448599Y-58860355D01*
X106544044Y-58830064D01*
X106578916Y-58826330D01*
X106731128Y-58813560D01*
X106831240Y-59201873D01*
X106890060Y-59410516D01*
X106948264Y-59547944D01*
X107020492Y-59626226D01*
X107121384Y-59657427D01*
X107265579Y-59653614D01*
X107364614Y-59641516D01*
X107611334Y-59607851D01*
X107400245Y-59574804D01*
X107212888Y-59542681D01*
X107090256Y-59511293D01*
X107012943Y-59471880D01*
X106961540Y-59415678D01*
X106931325Y-59363094D01*
X106886060Y-59199505D01*
X106888191Y-59190865D01*
X107230181Y-59190865D01*
X107230334Y-59198933D01*
X107284536Y-59223398D01*
X107393616Y-59238687D01*
X107467589Y-59241267D01*
X107664846Y-59270598D01*
X107801360Y-59357189D01*
X107874728Y-59498931D01*
X107887441Y-59609759D01*
X107888383Y-59770433D01*
X107970200Y-59664600D01*
X108047927Y-59554528D01*
X108103412Y-59463517D01*
X108133075Y-59370049D01*
X108103761Y-59273110D01*
X108098167Y-59262433D01*
X108067974Y-59214046D01*
X108028166Y-59183223D01*
X107960996Y-59166014D01*
X107848716Y-59158467D01*
X107673579Y-59156630D01*
X107622848Y-59156600D01*
X107417300Y-59160581D01*
X107284795Y-59172177D01*
X107230181Y-59190865D01*
X106888191Y-59190865D01*
X106924541Y-59043544D01*
X107018464Y-58920121D01*
X107065073Y-58878017D01*
X107116397Y-58849402D01*
X107188825Y-58831683D01*
X107298747Y-58822262D01*
X107462551Y-58818546D01*
X107663782Y-58817933D01*
X108206912Y-58817933D01*
X108285829Y-58951530D01*
X108364747Y-59085126D01*
X108476141Y-58948640D01*
X108560131Y-58860442D01*
X108643073Y-58825402D01*
X108766189Y-58825627D01*
X108944842Y-58839100D01*
X108775639Y-59093100D01*
X108692696Y-59221050D01*
X108632321Y-59320743D01*
X108606519Y-59372271D01*
X108606302Y-59373928D01*
X108628579Y-59419083D01*
X108687848Y-59515115D01*
X108772560Y-59643529D01*
X108797948Y-59680844D01*
X108989729Y-59960933D01*
X108784742Y-59960933D01*
X108652355Y-59953825D01*
X108568617Y-59922021D01*
X108497986Y-59849796D01*
X108480127Y-59826178D01*
X108380498Y-59691423D01*
X108268000Y-59826178D01*
X108174270Y-59917925D01*
X108073137Y-59955566D01*
X107978667Y-59960933D01*
X107854173Y-59952204D01*
X107806886Y-59921968D01*
X107830766Y-59864152D01*
X107854750Y-59836350D01*
X107859747Y-59821052D01*
X107808923Y-59850757D01*
X107778865Y-59871685D01*
X107715075Y-59911918D01*
X107646067Y-59937692D01*
X107552978Y-59951484D01*
X107416944Y-59955772D01*
X107219102Y-59953033D01*
X107168776Y-59951818D01*
X106687489Y-59939767D01*
X106639972Y-59770433D01*
X106604115Y-59669202D01*
X106572663Y-59647541D01*
X106541563Y-59707129D01*
X106512282Y-59823350D01*
X106484739Y-59913164D01*
X106434894Y-59952032D01*
X106333245Y-59960892D01*
X106318435Y-59960933D01*
X106214668Y-59955223D01*
X106158124Y-59922949D01*
X106121781Y-59841401D01*
X106104386Y-59781017D01*
X106054675Y-59601100D01*
X105993393Y-59781017D01*
X105949861Y-59892447D01*
X105901656Y-59944739D01*
X105820717Y-59960126D01*
X105766306Y-59960933D01*
X105661531Y-59955696D01*
X105604180Y-59942646D01*
X105600500Y-59937804D01*
X105611309Y-59890702D01*
X105640927Y-59777802D01*
X105685144Y-59614781D01*
X105739747Y-59417319D01*
X105754613Y-59364103D01*
X105908726Y-58813531D01*
X106059743Y-58826316D01*
G36*
X101109368Y-58826387D02*
G01*
X101221877Y-58850490D01*
X101271857Y-58905262D01*
X101276673Y-58923767D01*
X101305080Y-59030123D01*
X101334546Y-59114267D01*
X101360806Y-59171438D01*
X101381976Y-59173364D01*
X101408373Y-59110409D01*
X101436552Y-59019017D01*
X101477205Y-58898742D01*
X101519016Y-58839373D01*
X101583461Y-58819623D01*
X101639392Y-58817933D01*
X101724052Y-58823368D01*
X101773628Y-58853621D01*
X101806995Y-58929613D01*
X101833727Y-59033325D01*
X101885399Y-59248718D01*
X101907688Y-59198933D01*
X102256167Y-59198933D01*
X102294460Y-59222034D01*
X102393313Y-59237410D01*
X102490924Y-59241267D01*
X102698509Y-59267707D01*
X102840528Y-59347420D01*
X102917692Y-59480996D01*
X102933500Y-59607642D01*
X102935906Y-59692855D01*
X102950187Y-59724511D01*
X102986938Y-59698302D01*
X103056755Y-59609922D01*
X103111645Y-59535227D01*
X103177910Y-59437901D01*
X103197330Y-59373811D01*
X103175078Y-59309389D01*
X103152421Y-59270643D01*
X103116974Y-59218293D01*
X103075275Y-59185054D01*
X103008970Y-59166588D01*
X102899702Y-59158561D01*
X102729119Y-59156636D01*
X102669695Y-59156600D01*
X102476240Y-59160714D01*
X102336793Y-59172199D01*
X102263912Y-59189768D01*
X102256167Y-59198933D01*
X101907688Y-59198933D01*
X101961351Y-59079074D01*
X102027926Y-58962617D01*
X102101788Y-58878179D01*
X102122785Y-58863682D01*
X102198541Y-58845433D01*
X102340087Y-58830782D01*
X102528572Y-58821148D01*
X102731090Y-58817933D01*
X103253912Y-58817933D01*
X103332829Y-58951530D01*
X103411747Y-59085126D01*
X103523141Y-58948640D01*
X103607131Y-58860442D01*
X103690073Y-58825402D01*
X103813189Y-58825627D01*
X103991842Y-58839100D01*
X103822639Y-59093100D01*
X103739511Y-59222405D01*
X103679096Y-59324993D01*
X103653486Y-59380225D01*
X103653302Y-59382103D01*
X103676256Y-59431820D01*
X103736602Y-59528724D01*
X103821343Y-59651961D01*
X103822500Y-59653578D01*
X103907494Y-59777091D01*
X103968276Y-59874616D01*
X103991830Y-59925254D01*
X103991834Y-59925491D01*
X103954012Y-59946743D01*
X103858450Y-59959394D01*
X103803727Y-59960933D01*
X103678783Y-59952966D01*
X103603620Y-59918047D01*
X103543999Y-59839650D01*
X103540599Y-59833933D01*
X103482605Y-59749005D01*
X103439030Y-59707697D01*
X103435255Y-59706933D01*
X103393199Y-59738120D01*
X103328294Y-59815036D01*
X103314500Y-59833933D01*
X103241933Y-59916438D01*
X103157603Y-59953079D01*
X103036451Y-59960933D01*
X102907487Y-59952950D01*
X102855244Y-59924764D01*
X102872916Y-59870020D01*
X102901750Y-59835154D01*
X102907831Y-59819180D01*
X102858755Y-59849764D01*
X102832541Y-59869021D01*
X102769695Y-59909709D01*
X102697962Y-59936368D01*
X102598572Y-59951874D01*
X102452755Y-59959103D01*
X102241741Y-59960932D01*
X102232819Y-59960933D01*
X101755222Y-59960933D01*
X101694147Y-59781017D01*
X101633071Y-59601100D01*
X101579120Y-59777561D01*
X101513626Y-59919347D01*
X101435585Y-59978066D01*
X101346711Y-59998750D01*
X101296783Y-59993936D01*
X101256885Y-59970868D01*
X101215159Y-59913565D01*
X101168052Y-59808449D01*
X101154719Y-59770433D01*
X101099336Y-59601100D01*
X101039223Y-59781017D01*
X100996615Y-59892389D01*
X100948911Y-59944657D01*
X100867597Y-59960081D01*
X100808777Y-59960933D01*
X100693912Y-59951283D01*
X100655395Y-59920871D01*
X100657554Y-59908017D01*
X100675399Y-59848743D01*
X100710299Y-59725179D01*
X100757382Y-59554814D01*
X100811776Y-59355135D01*
X100814419Y-59345359D01*
X101931126Y-59345359D01*
X101947798Y-59447004D01*
X101958683Y-59490993D01*
X102005430Y-59664600D01*
X102247215Y-59661624D01*
X102396660Y-59654218D01*
X102521703Y-59638374D01*
X102573667Y-59625118D01*
X102598312Y-59603969D01*
X102552652Y-59584663D01*
X102430265Y-59564914D01*
X102391257Y-59560148D01*
X102195313Y-59518679D01*
X102051093Y-59450439D01*
X101971457Y-59362858D01*
X101959834Y-59310895D01*
X101942840Y-59288274D01*
X101935884Y-59293438D01*
X101931126Y-59345359D01*
X100814419Y-59345359D01*
X100817386Y-59334387D01*
X100958107Y-58813673D01*
X101109368Y-58826387D01*
G37*
X101109368Y-58826387D02*
X101221877Y-58850490D01*
X101271857Y-58905262D01*
X101276673Y-58923767D01*
X101305080Y-59030123D01*
X101334546Y-59114267D01*
X101360806Y-59171438D01*
X101381976Y-59173364D01*
X101408373Y-59110409D01*
X101436552Y-59019017D01*
X101477205Y-58898742D01*
X101519016Y-58839373D01*
X101583461Y-58819623D01*
X101639392Y-58817933D01*
X101724052Y-58823368D01*
X101773628Y-58853621D01*
X101806995Y-58929613D01*
X101833727Y-59033325D01*
X101885399Y-59248718D01*
X101907688Y-59198933D01*
X102256167Y-59198933D01*
X102294460Y-59222034D01*
X102393313Y-59237410D01*
X102490924Y-59241267D01*
X102698509Y-59267707D01*
X102840528Y-59347420D01*
X102917692Y-59480996D01*
X102933500Y-59607642D01*
X102935906Y-59692855D01*
X102950187Y-59724511D01*
X102986938Y-59698302D01*
X103056755Y-59609922D01*
X103111645Y-59535227D01*
X103177910Y-59437901D01*
X103197330Y-59373811D01*
X103175078Y-59309389D01*
X103152421Y-59270643D01*
X103116974Y-59218293D01*
X103075275Y-59185054D01*
X103008970Y-59166588D01*
X102899702Y-59158561D01*
X102729119Y-59156636D01*
X102669695Y-59156600D01*
X102476240Y-59160714D01*
X102336793Y-59172199D01*
X102263912Y-59189768D01*
X102256167Y-59198933D01*
X101907688Y-59198933D01*
X101961351Y-59079074D01*
X102027926Y-58962617D01*
X102101788Y-58878179D01*
X102122785Y-58863682D01*
X102198541Y-58845433D01*
X102340087Y-58830782D01*
X102528572Y-58821148D01*
X102731090Y-58817933D01*
X103253912Y-58817933D01*
X103332829Y-58951530D01*
X103411747Y-59085126D01*
X103523141Y-58948640D01*
X103607131Y-58860442D01*
X103690073Y-58825402D01*
X103813189Y-58825627D01*
X103991842Y-58839100D01*
X103822639Y-59093100D01*
X103739511Y-59222405D01*
X103679096Y-59324993D01*
X103653486Y-59380225D01*
X103653302Y-59382103D01*
X103676256Y-59431820D01*
X103736602Y-59528724D01*
X103821343Y-59651961D01*
X103822500Y-59653578D01*
X103907494Y-59777091D01*
X103968276Y-59874616D01*
X103991830Y-59925254D01*
X103991834Y-59925491D01*
X103954012Y-59946743D01*
X103858450Y-59959394D01*
X103803727Y-59960933D01*
X103678783Y-59952966D01*
X103603620Y-59918047D01*
X103543999Y-59839650D01*
X103540599Y-59833933D01*
X103482605Y-59749005D01*
X103439030Y-59707697D01*
X103435255Y-59706933D01*
X103393199Y-59738120D01*
X103328294Y-59815036D01*
X103314500Y-59833933D01*
X103241933Y-59916438D01*
X103157603Y-59953079D01*
X103036451Y-59960933D01*
X102907487Y-59952950D01*
X102855244Y-59924764D01*
X102872916Y-59870020D01*
X102901750Y-59835154D01*
X102907831Y-59819180D01*
X102858755Y-59849764D01*
X102832541Y-59869021D01*
X102769695Y-59909709D01*
X102697962Y-59936368D01*
X102598572Y-59951874D01*
X102452755Y-59959103D01*
X102241741Y-59960932D01*
X102232819Y-59960933D01*
X101755222Y-59960933D01*
X101694147Y-59781017D01*
X101633071Y-59601100D01*
X101579120Y-59777561D01*
X101513626Y-59919347D01*
X101435585Y-59978066D01*
X101346711Y-59998750D01*
X101296783Y-59993936D01*
X101256885Y-59970868D01*
X101215159Y-59913565D01*
X101168052Y-59808449D01*
X101154719Y-59770433D01*
X101099336Y-59601100D01*
X101039223Y-59781017D01*
X100996615Y-59892389D01*
X100948911Y-59944657D01*
X100867597Y-59960081D01*
X100808777Y-59960933D01*
X100693912Y-59951283D01*
X100655395Y-59920871D01*
X100657554Y-59908017D01*
X100675399Y-59848743D01*
X100710299Y-59725179D01*
X100757382Y-59554814D01*
X100811776Y-59355135D01*
X100814419Y-59345359D01*
X101931126Y-59345359D01*
X101947798Y-59447004D01*
X101958683Y-59490993D01*
X102005430Y-59664600D01*
X102247215Y-59661624D01*
X102396660Y-59654218D01*
X102521703Y-59638374D01*
X102573667Y-59625118D01*
X102598312Y-59603969D01*
X102552652Y-59584663D01*
X102430265Y-59564914D01*
X102391257Y-59560148D01*
X102195313Y-59518679D01*
X102051093Y-59450439D01*
X101971457Y-59362858D01*
X101959834Y-59310895D01*
X101942840Y-59288274D01*
X101935884Y-59293438D01*
X101931126Y-59345359D01*
X100814419Y-59345359D01*
X100817386Y-59334387D01*
X100958107Y-58813673D01*
X101109368Y-58826387D01*
G36*
X119479731Y-58870960D02*
G01*
X119485834Y-58887020D01*
X119465509Y-58937025D01*
X119415046Y-59027830D01*
X119398632Y-59054868D01*
X119311430Y-59195964D01*
X119420747Y-59356198D01*
X119530064Y-59516433D01*
X119437004Y-59530936D01*
X119332477Y-59507535D01*
X119275378Y-59454539D01*
X119206811Y-59363638D01*
X119128095Y-59450619D01*
X119055592Y-59505065D01*
X118972576Y-59536657D01*
X118909376Y-59537182D01*
X118893167Y-59514237D01*
X118912479Y-59466509D01*
X118961134Y-59373675D01*
X118986762Y-59328249D01*
X119042361Y-59219767D01*
X119053090Y-59152046D01*
X119023912Y-59097612D01*
X118951249Y-59056962D01*
X118836282Y-59033620D01*
X118712370Y-59029496D01*
X118612877Y-59046501D01*
X118575667Y-59071933D01*
X118592001Y-59102100D01*
X118673739Y-59114261D01*
X118675978Y-59114267D01*
X118799197Y-59140975D01*
X118895050Y-59207809D01*
X118935436Y-59294836D01*
X118935500Y-59298371D01*
X118912849Y-59369153D01*
X118869600Y-59443514D01*
X118820278Y-59496306D01*
X118750077Y-59524924D01*
X118634489Y-59536246D01*
X118534461Y-59537600D01*
X118387085Y-59535152D01*
X118301855Y-59522175D01*
X118256272Y-59490224D01*
X118227840Y-59430852D01*
X118224407Y-59421183D01*
X118183592Y-59304767D01*
X118137261Y-59421183D01*
X118077078Y-59509425D01*
X118006247Y-59534283D01*
X117947546Y-59492237D01*
X117931766Y-59452933D01*
X117900352Y-59384355D01*
X117877167Y-59368267D01*
X117841681Y-59403429D01*
X117822567Y-59452933D01*
X117773628Y-59521485D01*
X117699479Y-59538122D01*
X117658144Y-59516133D01*
X117658127Y-59467984D01*
X117677427Y-59359754D01*
X117712070Y-59212761D01*
X117721321Y-59177466D01*
X117770753Y-59009217D01*
X117813088Y-58910195D01*
X117855573Y-58866186D01*
X117883092Y-58860267D01*
X117954839Y-58899051D01*
X117988341Y-58972308D01*
X118016462Y-59084350D01*
X118076520Y-58969725D01*
X118145399Y-58881382D01*
X118213470Y-58876196D01*
X118277878Y-58952684D01*
X118334200Y-59103683D01*
X118396010Y-59325933D01*
X118570505Y-59319590D01*
X118668410Y-59314421D01*
X118686249Y-59307445D01*
X118628619Y-59296251D01*
X118618000Y-59294678D01*
X118476725Y-59254215D01*
X118403562Y-59176919D01*
X118385167Y-59068239D01*
X118406999Y-58967142D01*
X118479735Y-58902509D01*
X118614232Y-58868785D01*
X118791800Y-58860267D01*
X118978426Y-58874030D01*
X119094868Y-58916797D01*
X119112083Y-58930328D01*
X119176592Y-58977153D01*
X119229170Y-58962286D01*
X119266917Y-58930328D01*
X119345286Y-58881676D01*
X119426785Y-58859797D01*
X119479731Y-58870960D01*
G37*
X119479731Y-58870960D02*
X119485834Y-58887020D01*
X119465509Y-58937025D01*
X119415046Y-59027830D01*
X119398632Y-59054868D01*
X119311430Y-59195964D01*
X119420747Y-59356198D01*
X119530064Y-59516433D01*
X119437004Y-59530936D01*
X119332477Y-59507535D01*
X119275378Y-59454539D01*
X119206811Y-59363638D01*
X119128095Y-59450619D01*
X119055592Y-59505065D01*
X118972576Y-59536657D01*
X118909376Y-59537182D01*
X118893167Y-59514237D01*
X118912479Y-59466509D01*
X118961134Y-59373675D01*
X118986762Y-59328249D01*
X119042361Y-59219767D01*
X119053090Y-59152046D01*
X119023912Y-59097612D01*
X118951249Y-59056962D01*
X118836282Y-59033620D01*
X118712370Y-59029496D01*
X118612877Y-59046501D01*
X118575667Y-59071933D01*
X118592001Y-59102100D01*
X118673739Y-59114261D01*
X118675978Y-59114267D01*
X118799197Y-59140975D01*
X118895050Y-59207809D01*
X118935436Y-59294836D01*
X118935500Y-59298371D01*
X118912849Y-59369153D01*
X118869600Y-59443514D01*
X118820278Y-59496306D01*
X118750077Y-59524924D01*
X118634489Y-59536246D01*
X118534461Y-59537600D01*
X118387085Y-59535152D01*
X118301855Y-59522175D01*
X118256272Y-59490224D01*
X118227840Y-59430852D01*
X118224407Y-59421183D01*
X118183592Y-59304767D01*
X118137261Y-59421183D01*
X118077078Y-59509425D01*
X118006247Y-59534283D01*
X117947546Y-59492237D01*
X117931766Y-59452933D01*
X117900352Y-59384355D01*
X117877167Y-59368267D01*
X117841681Y-59403429D01*
X117822567Y-59452933D01*
X117773628Y-59521485D01*
X117699479Y-59538122D01*
X117658144Y-59516133D01*
X117658127Y-59467984D01*
X117677427Y-59359754D01*
X117712070Y-59212761D01*
X117721321Y-59177466D01*
X117770753Y-59009217D01*
X117813088Y-58910195D01*
X117855573Y-58866186D01*
X117883092Y-58860267D01*
X117954839Y-58899051D01*
X117988341Y-58972308D01*
X118016462Y-59084350D01*
X118076520Y-58969725D01*
X118145399Y-58881382D01*
X118213470Y-58876196D01*
X118277878Y-58952684D01*
X118334200Y-59103683D01*
X118396010Y-59325933D01*
X118570505Y-59319590D01*
X118668410Y-59314421D01*
X118686249Y-59307445D01*
X118628619Y-59296251D01*
X118618000Y-59294678D01*
X118476725Y-59254215D01*
X118403562Y-59176919D01*
X118385167Y-59068239D01*
X118406999Y-58967142D01*
X118479735Y-58902509D01*
X118614232Y-58868785D01*
X118791800Y-58860267D01*
X118978426Y-58874030D01*
X119094868Y-58916797D01*
X119112083Y-58930328D01*
X119176592Y-58977153D01*
X119229170Y-58962286D01*
X119266917Y-58930328D01*
X119345286Y-58881676D01*
X119426785Y-58859797D01*
X119479731Y-58870960D01*
G36*
X119373035Y-59715104D02*
G01*
X119466770Y-59734783D01*
X119502426Y-59786724D01*
X119507000Y-59855100D01*
X119493693Y-59948457D01*
X119439007Y-59987631D01*
X119397543Y-59994823D01*
X119294967Y-59981816D01*
X119235296Y-59943938D01*
X119203676Y-59852178D01*
X119205667Y-59835112D01*
X119326792Y-59835112D01*
X119341178Y-59881948D01*
X119373642Y-59914002D01*
X119392160Y-59882119D01*
X119392477Y-59816031D01*
X119384410Y-59803065D01*
X119343697Y-59793201D01*
X119326792Y-59835112D01*
X119205667Y-59835112D01*
X119210788Y-59791219D01*
X119251277Y-59728302D01*
X119333908Y-59712473D01*
X119373035Y-59715104D01*
G37*
X119373035Y-59715104D02*
X119466770Y-59734783D01*
X119502426Y-59786724D01*
X119507000Y-59855100D01*
X119493693Y-59948457D01*
X119439007Y-59987631D01*
X119397543Y-59994823D01*
X119294967Y-59981816D01*
X119235296Y-59943938D01*
X119203676Y-59852178D01*
X119205667Y-59835112D01*
X119326792Y-59835112D01*
X119341178Y-59881948D01*
X119373642Y-59914002D01*
X119392160Y-59882119D01*
X119392477Y-59816031D01*
X119384410Y-59803065D01*
X119343697Y-59793201D01*
X119326792Y-59835112D01*
X119205667Y-59835112D01*
X119210788Y-59791219D01*
X119251277Y-59728302D01*
X119333908Y-59712473D01*
X119373035Y-59715104D01*
G36*
X118886003Y-59645125D02*
G01*
X118893167Y-59664600D01*
X118929475Y-59696133D01*
X119001682Y-59706933D01*
X119075330Y-59716838D01*
X119100198Y-59763642D01*
X119096932Y-59844517D01*
X119079481Y-59936027D01*
X119032881Y-59978161D01*
X118929851Y-59994825D01*
X118924917Y-59995239D01*
X118766167Y-60008377D01*
X118766167Y-59855100D01*
X118893167Y-59855100D01*
X118916026Y-59911436D01*
X118935500Y-59918600D01*
X118973057Y-59884312D01*
X118977834Y-59855100D01*
X118954975Y-59798764D01*
X118935500Y-59791600D01*
X118897943Y-59825888D01*
X118893167Y-59855100D01*
X118766167Y-59855100D01*
X118766167Y-59815322D01*
X118774266Y-59688836D01*
X118801872Y-59630662D01*
X118829667Y-59622267D01*
X118886003Y-59645125D01*
G37*
X118886003Y-59645125D02*
X118893167Y-59664600D01*
X118929475Y-59696133D01*
X119001682Y-59706933D01*
X119075330Y-59716838D01*
X119100198Y-59763642D01*
X119096932Y-59844517D01*
X119079481Y-59936027D01*
X119032881Y-59978161D01*
X118929851Y-59994825D01*
X118924917Y-59995239D01*
X118766167Y-60008377D01*
X118766167Y-59855100D01*
X118893167Y-59855100D01*
X118916026Y-59911436D01*
X118935500Y-59918600D01*
X118973057Y-59884312D01*
X118977834Y-59855100D01*
X118954975Y-59798764D01*
X118935500Y-59791600D01*
X118897943Y-59825888D01*
X118893167Y-59855100D01*
X118766167Y-59855100D01*
X118766167Y-59815322D01*
X118774266Y-59688836D01*
X118801872Y-59630662D01*
X118829667Y-59622267D01*
X118886003Y-59645125D01*
G36*
X118691374Y-59718994D02*
G01*
X118723834Y-59746455D01*
X118689590Y-59786490D01*
X118660334Y-59791600D01*
X118609262Y-59828400D01*
X118596834Y-59897433D01*
X118574047Y-59983480D01*
X118530651Y-60003267D01*
X118484994Y-59979328D01*
X118475387Y-59896321D01*
X118477735Y-59865683D01*
X118499843Y-59766931D01*
X118555992Y-59724195D01*
X118607417Y-59714705D01*
X118691374Y-59718994D01*
G37*
X118691374Y-59718994D02*
X118723834Y-59746455D01*
X118689590Y-59786490D01*
X118660334Y-59791600D01*
X118609262Y-59828400D01*
X118596834Y-59897433D01*
X118574047Y-59983480D01*
X118530651Y-60003267D01*
X118484994Y-59979328D01*
X118475387Y-59896321D01*
X118477735Y-59865683D01*
X118499843Y-59766931D01*
X118555992Y-59724195D01*
X118607417Y-59714705D01*
X118691374Y-59718994D01*
G36*
X118362289Y-59722932D02*
G01*
X118382728Y-59785961D01*
X118385167Y-59851996D01*
X118378870Y-59952708D01*
X118343794Y-59994559D01*
X118255660Y-60003235D01*
X118242184Y-60003267D01*
X118129025Y-59986087D01*
X118050542Y-59944474D01*
X118048188Y-59941800D01*
X118010918Y-59849829D01*
X118031205Y-59762557D01*
X118099903Y-59714899D01*
X118155655Y-59726703D01*
X118176805Y-59802292D01*
X118177720Y-59820246D01*
X118181981Y-59901366D01*
X118191497Y-59901226D01*
X118211326Y-59834155D01*
X118258991Y-59749087D01*
X118312940Y-59714635D01*
X118362289Y-59722932D01*
G37*
X118362289Y-59722932D02*
X118382728Y-59785961D01*
X118385167Y-59851996D01*
X118378870Y-59952708D01*
X118343794Y-59994559D01*
X118255660Y-60003235D01*
X118242184Y-60003267D01*
X118129025Y-59986087D01*
X118050542Y-59944474D01*
X118048188Y-59941800D01*
X118010918Y-59849829D01*
X118031205Y-59762557D01*
X118099903Y-59714899D01*
X118155655Y-59726703D01*
X118176805Y-59802292D01*
X118177720Y-59820246D01*
X118181981Y-59901366D01*
X118191497Y-59901226D01*
X118211326Y-59834155D01*
X118258991Y-59749087D01*
X118312940Y-59714635D01*
X118362289Y-59722932D01*
G36*
X117834834Y-59664600D02*
G01*
X117869122Y-59702157D01*
X117898334Y-59706933D01*
X117954669Y-59729792D01*
X117961834Y-59749267D01*
X117927545Y-59786824D01*
X117898334Y-59791600D01*
X117842209Y-59825486D01*
X117834834Y-59855100D01*
X117868720Y-59911224D01*
X117898334Y-59918600D01*
X117954669Y-59941459D01*
X117961834Y-59960933D01*
X117927066Y-59993376D01*
X117844381Y-59996805D01*
X117760750Y-59975230D01*
X117715713Y-59920065D01*
X117707834Y-59876267D01*
X117683042Y-59802178D01*
X117655295Y-59781142D01*
X117630983Y-59750556D01*
X117673438Y-59692948D01*
X117754015Y-59634454D01*
X117815063Y-59627320D01*
X117834834Y-59664600D01*
G37*
X117834834Y-59664600D02*
X117869122Y-59702157D01*
X117898334Y-59706933D01*
X117954669Y-59729792D01*
X117961834Y-59749267D01*
X117927545Y-59786824D01*
X117898334Y-59791600D01*
X117842209Y-59825486D01*
X117834834Y-59855100D01*
X117868720Y-59911224D01*
X117898334Y-59918600D01*
X117954669Y-59941459D01*
X117961834Y-59960933D01*
X117927066Y-59993376D01*
X117844381Y-59996805D01*
X117760750Y-59975230D01*
X117715713Y-59920065D01*
X117707834Y-59876267D01*
X117683042Y-59802178D01*
X117655295Y-59781142D01*
X117630983Y-59750556D01*
X117673438Y-59692948D01*
X117754015Y-59634454D01*
X117815063Y-59627320D01*
X117834834Y-59664600D01*
G36*
X121433167Y-60087933D02*
G01*
X119909167Y-60087933D01*
X119909167Y-58860267D01*
X120247834Y-58860267D01*
X120247834Y-59960933D01*
X120349138Y-59960933D01*
X120437492Y-59935957D01*
X120476138Y-59893971D01*
X120494039Y-59806185D01*
X120501823Y-59686505D01*
X120501834Y-59682304D01*
X120506099Y-59593388D01*
X120534253Y-59551283D01*
X120609336Y-59538488D01*
X120692334Y-59537600D01*
X120882834Y-59537600D01*
X120882834Y-59749267D01*
X120886265Y-59874889D01*
X120903776Y-59937558D01*
X120946193Y-59958928D01*
X120988667Y-59960933D01*
X121051255Y-59954157D01*
X121082618Y-59919457D01*
X121093432Y-59835275D01*
X121094500Y-59747236D01*
X121086447Y-59606397D01*
X121053656Y-59514236D01*
X120983178Y-59435590D01*
X120978084Y-59431074D01*
X120904739Y-59363682D01*
X120892053Y-59334809D01*
X120936599Y-59327648D01*
X120956917Y-59327271D01*
X121023644Y-59311501D01*
X121049252Y-59250469D01*
X121051878Y-59188350D01*
X121013659Y-59047221D01*
X120903412Y-58943256D01*
X120726753Y-58879852D01*
X120509797Y-58860267D01*
X120247834Y-58860267D01*
X119909167Y-58860267D01*
X119909167Y-58733267D01*
X121433167Y-58733267D01*
X121433167Y-60087933D01*
G37*
X121433167Y-60087933D02*
X119909167Y-60087933D01*
X119909167Y-58860267D01*
X120247834Y-58860267D01*
X120247834Y-59960933D01*
X120349138Y-59960933D01*
X120437492Y-59935957D01*
X120476138Y-59893971D01*
X120494039Y-59806185D01*
X120501823Y-59686505D01*
X120501834Y-59682304D01*
X120506099Y-59593388D01*
X120534253Y-59551283D01*
X120609336Y-59538488D01*
X120692334Y-59537600D01*
X120882834Y-59537600D01*
X120882834Y-59749267D01*
X120886265Y-59874889D01*
X120903776Y-59937558D01*
X120946193Y-59958928D01*
X120988667Y-59960933D01*
X121051255Y-59954157D01*
X121082618Y-59919457D01*
X121093432Y-59835275D01*
X121094500Y-59747236D01*
X121086447Y-59606397D01*
X121053656Y-59514236D01*
X120983178Y-59435590D01*
X120978084Y-59431074D01*
X120904739Y-59363682D01*
X120892053Y-59334809D01*
X120936599Y-59327648D01*
X120956917Y-59327271D01*
X121023644Y-59311501D01*
X121049252Y-59250469D01*
X121051878Y-59188350D01*
X121013659Y-59047221D01*
X120903412Y-58943256D01*
X120726753Y-58879852D01*
X120509797Y-58860267D01*
X120247834Y-58860267D01*
X119909167Y-58860267D01*
X119909167Y-58733267D01*
X121433167Y-58733267D01*
X121433167Y-60087933D01*
G36*
X122237500Y-60892267D02*
G01*
X99673834Y-60892267D01*
X99673834Y-58606267D01*
X100393500Y-58606267D01*
X100393500Y-60172600D01*
X104288167Y-60172600D01*
X104288167Y-58606267D01*
X105304167Y-58606267D01*
X105304167Y-60172600D01*
X109241167Y-60172600D01*
X109241167Y-59452933D01*
X109325591Y-59452933D01*
X109473879Y-59452933D01*
X109581544Y-59440235D01*
X109621213Y-59398136D01*
X109622167Y-59386329D01*
X109650897Y-59339936D01*
X109712241Y-59337927D01*
X109768931Y-59376886D01*
X109781235Y-59400911D01*
X109762467Y-59456305D01*
X109695820Y-59547822D01*
X109605240Y-59645890D01*
X109498531Y-59764902D01*
X109418222Y-59879936D01*
X109386212Y-59951912D01*
X109361644Y-60056794D01*
X109344793Y-60119683D01*
X109359619Y-60146942D01*
X109431542Y-60163665D01*
X109571163Y-60171491D01*
X109686995Y-60172600D01*
X110045500Y-60172600D01*
X110045500Y-60045600D01*
X110040013Y-59967615D01*
X110008263Y-59930605D01*
X109927314Y-59919340D01*
X109854257Y-59918600D01*
X109663013Y-59918600D01*
X109854257Y-59735356D01*
X109973560Y-59607262D01*
X110032927Y-59503706D01*
X110045500Y-59427276D01*
X110012114Y-59270471D01*
X109924815Y-59159458D01*
X109802895Y-59097489D01*
X109665644Y-59087816D01*
X109532352Y-59133688D01*
X109422311Y-59238358D01*
X109381388Y-59315350D01*
X109325591Y-59452933D01*
X109241167Y-59452933D01*
X109241167Y-58606267D01*
X110892167Y-58606267D01*
X110892167Y-60172600D01*
X114786834Y-60172600D01*
X114949440Y-60172600D01*
X115675834Y-60172600D01*
X115675834Y-60045600D01*
X115670347Y-59967615D01*
X115638596Y-59930605D01*
X115557648Y-59919340D01*
X115484590Y-59918600D01*
X115293347Y-59918600D01*
X115484590Y-59735356D01*
X115608192Y-59595070D01*
X115764922Y-59595070D01*
X115768139Y-59632850D01*
X115788979Y-59692389D01*
X115844878Y-59724027D01*
X115958861Y-59739367D01*
X115982750Y-59741003D01*
X116183834Y-59753905D01*
X116183834Y-59963253D01*
X116188393Y-60089360D01*
X116207702Y-60151922D01*
X116250207Y-60171825D01*
X116268500Y-60172600D01*
X116319284Y-60161456D01*
X116344611Y-60114154D01*
X116352805Y-60009891D01*
X116353167Y-59960933D01*
X116353167Y-59749267D01*
X116564834Y-59749267D01*
X116690456Y-59745835D01*
X116753125Y-59728324D01*
X116774495Y-59685907D01*
X116776500Y-59643433D01*
X116769638Y-59580622D01*
X116734615Y-59549287D01*
X116649780Y-59538602D01*
X116564834Y-59537600D01*
X116353167Y-59537600D01*
X116353167Y-59304767D01*
X116349492Y-59170213D01*
X116333603Y-59100117D01*
X116298204Y-59074416D01*
X116268500Y-59071933D01*
X116219571Y-59082039D01*
X116194082Y-59125734D01*
X116184737Y-59223082D01*
X116183834Y-59304767D01*
X116183834Y-59537600D01*
X115969223Y-59537600D01*
X115843081Y-59540840D01*
X115781621Y-59556852D01*
X115764922Y-59595070D01*
X115608192Y-59595070D01*
X115615109Y-59587220D01*
X115673766Y-59453870D01*
X115666818Y-59317442D01*
X115649537Y-59264330D01*
X115586655Y-59190070D01*
X115475932Y-59121446D01*
X115353034Y-59078051D01*
X115299296Y-59071933D01*
X115196678Y-59105968D01*
X115088106Y-59190529D01*
X115003181Y-59299300D01*
X114977902Y-59357683D01*
X114968655Y-59420984D01*
X115004273Y-59447589D01*
X115101481Y-59452933D01*
X115212192Y-59439695D01*
X115252010Y-59397183D01*
X115252500Y-59389433D01*
X115286387Y-59333309D01*
X115316000Y-59325933D01*
X115366894Y-59357658D01*
X115379274Y-59431544D01*
X115355595Y-59515653D01*
X115298310Y-59578052D01*
X115296554Y-59579012D01*
X115185956Y-59670465D01*
X115079257Y-59810101D01*
X115000243Y-59963803D01*
X114978606Y-60035017D01*
X114949440Y-60172600D01*
X114786834Y-60172600D01*
X114786834Y-58606267D01*
X117284500Y-58606267D01*
X117284500Y-59382378D01*
X117285971Y-59630581D01*
X117290058Y-59849034D01*
X117296275Y-60023854D01*
X117304133Y-60141154D01*
X117312722Y-60186711D01*
X117359379Y-60192253D01*
X117482530Y-60197434D01*
X117674002Y-60202147D01*
X117925624Y-60206284D01*
X118229222Y-60209737D01*
X118576624Y-60212398D01*
X118959659Y-60214159D01*
X119370153Y-60214913D01*
X119450556Y-60214933D01*
X121560167Y-60214933D01*
X121560167Y-58606267D01*
X117284500Y-58606267D01*
X114786834Y-58606267D01*
X110892167Y-58606267D01*
X109241167Y-58606267D01*
X105304167Y-58606267D01*
X104288167Y-58606267D01*
X100393500Y-58606267D01*
X99673834Y-58606267D01*
X99673834Y-49631600D01*
X100393500Y-49631600D01*
X100393500Y-58225267D01*
X121560167Y-58225267D01*
X121560167Y-49631600D01*
X100393500Y-49631600D01*
X99673834Y-49631600D01*
X99673834Y-48827267D01*
X122237500Y-48827267D01*
X122237500Y-60892267D01*
G37*
X122237500Y-60892267D02*
X99673834Y-60892267D01*
X99673834Y-58606267D01*
X100393500Y-58606267D01*
X100393500Y-60172600D01*
X104288167Y-60172600D01*
X104288167Y-58606267D01*
X105304167Y-58606267D01*
X105304167Y-60172600D01*
X109241167Y-60172600D01*
X109241167Y-59452933D01*
X109325591Y-59452933D01*
X109473879Y-59452933D01*
X109581544Y-59440235D01*
X109621213Y-59398136D01*
X109622167Y-59386329D01*
X109650897Y-59339936D01*
X109712241Y-59337927D01*
X109768931Y-59376886D01*
X109781235Y-59400911D01*
X109762467Y-59456305D01*
X109695820Y-59547822D01*
X109605240Y-59645890D01*
X109498531Y-59764902D01*
X109418222Y-59879936D01*
X109386212Y-59951912D01*
X109361644Y-60056794D01*
X109344793Y-60119683D01*
X109359619Y-60146942D01*
X109431542Y-60163665D01*
X109571163Y-60171491D01*
X109686995Y-60172600D01*
X110045500Y-60172600D01*
X110045500Y-60045600D01*
X110040013Y-59967615D01*
X110008263Y-59930605D01*
X109927314Y-59919340D01*
X109854257Y-59918600D01*
X109663013Y-59918600D01*
X109854257Y-59735356D01*
X109973560Y-59607262D01*
X110032927Y-59503706D01*
X110045500Y-59427276D01*
X110012114Y-59270471D01*
X109924815Y-59159458D01*
X109802895Y-59097489D01*
X109665644Y-59087816D01*
X109532352Y-59133688D01*
X109422311Y-59238358D01*
X109381388Y-59315350D01*
X109325591Y-59452933D01*
X109241167Y-59452933D01*
X109241167Y-58606267D01*
X110892167Y-58606267D01*
X110892167Y-60172600D01*
X114786834Y-60172600D01*
X114949440Y-60172600D01*
X115675834Y-60172600D01*
X115675834Y-60045600D01*
X115670347Y-59967615D01*
X115638596Y-59930605D01*
X115557648Y-59919340D01*
X115484590Y-59918600D01*
X115293347Y-59918600D01*
X115484590Y-59735356D01*
X115608192Y-59595070D01*
X115764922Y-59595070D01*
X115768139Y-59632850D01*
X115788979Y-59692389D01*
X115844878Y-59724027D01*
X115958861Y-59739367D01*
X115982750Y-59741003D01*
X116183834Y-59753905D01*
X116183834Y-59963253D01*
X116188393Y-60089360D01*
X116207702Y-60151922D01*
X116250207Y-60171825D01*
X116268500Y-60172600D01*
X116319284Y-60161456D01*
X116344611Y-60114154D01*
X116352805Y-60009891D01*
X116353167Y-59960933D01*
X116353167Y-59749267D01*
X116564834Y-59749267D01*
X116690456Y-59745835D01*
X116753125Y-59728324D01*
X116774495Y-59685907D01*
X116776500Y-59643433D01*
X116769638Y-59580622D01*
X116734615Y-59549287D01*
X116649780Y-59538602D01*
X116564834Y-59537600D01*
X116353167Y-59537600D01*
X116353167Y-59304767D01*
X116349492Y-59170213D01*
X116333603Y-59100117D01*
X116298204Y-59074416D01*
X116268500Y-59071933D01*
X116219571Y-59082039D01*
X116194082Y-59125734D01*
X116184737Y-59223082D01*
X116183834Y-59304767D01*
X116183834Y-59537600D01*
X115969223Y-59537600D01*
X115843081Y-59540840D01*
X115781621Y-59556852D01*
X115764922Y-59595070D01*
X115608192Y-59595070D01*
X115615109Y-59587220D01*
X115673766Y-59453870D01*
X115666818Y-59317442D01*
X115649537Y-59264330D01*
X115586655Y-59190070D01*
X115475932Y-59121446D01*
X115353034Y-59078051D01*
X115299296Y-59071933D01*
X115196678Y-59105968D01*
X115088106Y-59190529D01*
X115003181Y-59299300D01*
X114977902Y-59357683D01*
X114968655Y-59420984D01*
X115004273Y-59447589D01*
X115101481Y-59452933D01*
X115212192Y-59439695D01*
X115252010Y-59397183D01*
X115252500Y-59389433D01*
X115286387Y-59333309D01*
X115316000Y-59325933D01*
X115366894Y-59357658D01*
X115379274Y-59431544D01*
X115355595Y-59515653D01*
X115298310Y-59578052D01*
X115296554Y-59579012D01*
X115185956Y-59670465D01*
X115079257Y-59810101D01*
X115000243Y-59963803D01*
X114978606Y-60035017D01*
X114949440Y-60172600D01*
X114786834Y-60172600D01*
X114786834Y-58606267D01*
X117284500Y-58606267D01*
X117284500Y-59382378D01*
X117285971Y-59630581D01*
X117290058Y-59849034D01*
X117296275Y-60023854D01*
X117304133Y-60141154D01*
X117312722Y-60186711D01*
X117359379Y-60192253D01*
X117482530Y-60197434D01*
X117674002Y-60202147D01*
X117925624Y-60206284D01*
X118229222Y-60209737D01*
X118576624Y-60212398D01*
X118959659Y-60214159D01*
X119370153Y-60214913D01*
X119450556Y-60214933D01*
X121560167Y-60214933D01*
X121560167Y-58606267D01*
X117284500Y-58606267D01*
X114786834Y-58606267D01*
X110892167Y-58606267D01*
X109241167Y-58606267D01*
X105304167Y-58606267D01*
X104288167Y-58606267D01*
X100393500Y-58606267D01*
X99673834Y-58606267D01*
X99673834Y-49631600D01*
X100393500Y-49631600D01*
X100393500Y-58225267D01*
X121560167Y-58225267D01*
X121560167Y-49631600D01*
X100393500Y-49631600D01*
X99673834Y-49631600D01*
X99673834Y-48827267D01*
X122237500Y-48827267D01*
X122237500Y-60892267D01*
D11*
X117409200Y-33266900D02*
X121249200Y-33266900D01*
X117409200Y-31426900D02*
X121249200Y-31426900D01*
X111330300Y-33223700D02*
X111330300Y-33379700D01*
X111330300Y-30907700D02*
X111330300Y-31063700D01*
X113931430Y-33223537D02*
G75*
G02X111849339Y-33223700I-1041130J1079837D01*
G01*
X113931430Y-31063863D02*
G75*
G03X111849339Y-31063700I-1041130J-1079837D01*
G01*
X114562635Y-33222308D02*
G75*
G02X111330300Y-33379216I-1672335J1078608D01*
G01*
X114562635Y-31065092D02*
G75*
G03X111330300Y-30908184I-1672335J-1078608D01*
G01*
D12*
X161032100Y-71624100D02*
X161032100Y-69974100D01*
X159382100Y-71624100D02*
X161032100Y-71624100D01*
X130382100Y-71624100D02*
X130382100Y-69974100D01*
X132032100Y-71624100D02*
X130382100Y-71624100D01*
X161032100Y-40974100D02*
X161032100Y-42624100D01*
X159382100Y-40974100D02*
X161032100Y-40974100D01*
X130382100Y-42124100D02*
X130382100Y-42624100D01*
X131532100Y-40974100D02*
X130382100Y-42124100D01*
X132032100Y-40974100D02*
X131532100Y-40974100D01*
D11*
X96779600Y-65368200D02*
X96779600Y-64110200D01*
X94939600Y-65368200D02*
X94939600Y-64110200D01*
X84576400Y-63816200D02*
X84576400Y-65074200D01*
X86416400Y-63816200D02*
X86416400Y-65074200D01*
X85248000Y-41442400D02*
X85248000Y-37602400D01*
X83408000Y-41442400D02*
X83408000Y-37602400D01*
X87838800Y-41493200D02*
X87838800Y-37653200D01*
X85998800Y-41493200D02*
X85998800Y-37653200D01*
X88488000Y-37602400D02*
X88488000Y-41442400D01*
X90328000Y-37602400D02*
X90328000Y-41442400D01*
X92766400Y-41340800D02*
X92766400Y-37500800D01*
X90926400Y-41340800D02*
X90926400Y-37500800D01*
X87318800Y-68311200D02*
X87318800Y-62301200D01*
X94138800Y-66061200D02*
X94138800Y-62301200D01*
X87318800Y-62301200D02*
X88578800Y-62301200D01*
X94138800Y-62301200D02*
X92878800Y-62301200D01*
X131054800Y-30318400D02*
X131054800Y-35518400D01*
X179374800Y-30318400D02*
X131054800Y-30318400D01*
X181974800Y-35518400D02*
X131054800Y-35518400D01*
X179374800Y-30318400D02*
X179374800Y-32918400D01*
X179374800Y-32918400D02*
X181974800Y-32918400D01*
X181974800Y-32918400D02*
X181974800Y-35518400D01*
X180644800Y-30318400D02*
X181974800Y-30318400D01*
X181974800Y-30318400D02*
X181974800Y-31648400D01*
X82998000Y-30166000D02*
X82998000Y-35366000D01*
X93218000Y-30166000D02*
X82998000Y-30166000D01*
X95818000Y-35366000D02*
X82998000Y-35366000D01*
X93218000Y-30166000D02*
X93218000Y-32766000D01*
X93218000Y-32766000D02*
X95818000Y-32766000D01*
X95818000Y-32766000D02*
X95818000Y-35366000D01*
X94488000Y-30166000D02*
X95818000Y-30166000D01*
X95818000Y-30166000D02*
X95818000Y-31496000D01*
D13*
X137681744Y-87149820D02*
X137681744Y-86149820D01*
X138062697Y-86149820D01*
X138157935Y-86197440D01*
X138205554Y-86245059D01*
X138253173Y-86340297D01*
X138253173Y-86483154D01*
X138205554Y-86578392D01*
X138157935Y-86626011D01*
X138062697Y-86673630D01*
X137681744Y-86673630D01*
X139205554Y-87149820D02*
X138634125Y-87149820D01*
X138919840Y-87149820D02*
X138919840Y-86149820D01*
X138824601Y-86292678D01*
X138729363Y-86387916D01*
X138634125Y-86435535D01*
X119162533Y-30879280D02*
X118829200Y-30403090D01*
X118591104Y-30879280D02*
X118591104Y-29879280D01*
X118972057Y-29879280D01*
X119067295Y-29926900D01*
X119114914Y-29974519D01*
X119162533Y-30069757D01*
X119162533Y-30212614D01*
X119114914Y-30307852D01*
X119067295Y-30355471D01*
X118972057Y-30403090D01*
X118591104Y-30403090D01*
X120067295Y-29879280D02*
X119591104Y-29879280D01*
X119543485Y-30355471D01*
X119591104Y-30307852D01*
X119686342Y-30260233D01*
X119924438Y-30260233D01*
X120019676Y-30307852D01*
X120067295Y-30355471D01*
X120114914Y-30450709D01*
X120114914Y-30688804D01*
X120067295Y-30784042D01*
X120019676Y-30831661D01*
X119924438Y-30879280D01*
X119686342Y-30879280D01*
X119591104Y-30831661D01*
X119543485Y-30784042D01*
X110120204Y-35847280D02*
X110120204Y-34847280D01*
X110358300Y-34847280D01*
X110501157Y-34894900D01*
X110596395Y-34990138D01*
X110644014Y-35085376D01*
X110691633Y-35275852D01*
X110691633Y-35418709D01*
X110644014Y-35609185D01*
X110596395Y-35704423D01*
X110501157Y-35799661D01*
X110358300Y-35847280D01*
X110120204Y-35847280D01*
X111644014Y-35847280D02*
X111072585Y-35847280D01*
X111358300Y-35847280D02*
X111358300Y-34847280D01*
X111263061Y-34990138D01*
X111167823Y-35085376D01*
X111072585Y-35132995D01*
X145503995Y-55853080D02*
X145503995Y-56662604D01*
X145551614Y-56757842D01*
X145599233Y-56805461D01*
X145694471Y-56853080D01*
X145884947Y-56853080D01*
X145980185Y-56805461D01*
X146027804Y-56757842D01*
X146075423Y-56662604D01*
X146075423Y-55853080D01*
X147075423Y-56853080D02*
X146503995Y-56853080D01*
X146789709Y-56853080D02*
X146789709Y-55853080D01*
X146694471Y-55995938D01*
X146599233Y-56091176D01*
X146503995Y-56138795D01*
X94166742Y-64905866D02*
X94214361Y-64953485D01*
X94261980Y-65096342D01*
X94261980Y-65191580D01*
X94214361Y-65334438D01*
X94119123Y-65429676D01*
X94023885Y-65477295D01*
X93833409Y-65524914D01*
X93690552Y-65524914D01*
X93500076Y-65477295D01*
X93404838Y-65429676D01*
X93309600Y-65334438D01*
X93261980Y-65191580D01*
X93261980Y-65096342D01*
X93309600Y-64953485D01*
X93357219Y-64905866D01*
X93357219Y-64524914D02*
X93309600Y-64477295D01*
X93261980Y-64382057D01*
X93261980Y-64143961D01*
X93309600Y-64048723D01*
X93357219Y-64001104D01*
X93452457Y-63953485D01*
X93547695Y-63953485D01*
X93690552Y-64001104D01*
X94261980Y-64572533D01*
X94261980Y-63953485D01*
X87903542Y-64611866D02*
X87951161Y-64659485D01*
X87998780Y-64802342D01*
X87998780Y-64897580D01*
X87951161Y-65040438D01*
X87855923Y-65135676D01*
X87760685Y-65183295D01*
X87570209Y-65230914D01*
X87427352Y-65230914D01*
X87236876Y-65183295D01*
X87141638Y-65135676D01*
X87046400Y-65040438D01*
X86998780Y-64897580D01*
X86998780Y-64802342D01*
X87046400Y-64659485D01*
X87094019Y-64611866D01*
X87998780Y-63659485D02*
X87998780Y-64230914D01*
X87998780Y-63945200D02*
X86998780Y-63945200D01*
X87141638Y-64040438D01*
X87236876Y-64135676D01*
X87284495Y-64230914D01*
X82860380Y-39689066D02*
X82384190Y-40022400D01*
X82860380Y-40260495D02*
X81860380Y-40260495D01*
X81860380Y-39879542D01*
X81908000Y-39784304D01*
X81955619Y-39736685D01*
X82050857Y-39689066D01*
X82193714Y-39689066D01*
X82288952Y-39736685D01*
X82336571Y-39784304D01*
X82384190Y-39879542D01*
X82384190Y-40260495D01*
X82193714Y-38831923D02*
X82860380Y-38831923D01*
X81812761Y-39070019D02*
X82527047Y-39308114D01*
X82527047Y-38689066D01*
X85451180Y-39739866D02*
X84974990Y-40073200D01*
X85451180Y-40311295D02*
X84451180Y-40311295D01*
X84451180Y-39930342D01*
X84498800Y-39835104D01*
X84546419Y-39787485D01*
X84641657Y-39739866D01*
X84784514Y-39739866D01*
X84879752Y-39787485D01*
X84927371Y-39835104D01*
X84974990Y-39930342D01*
X84974990Y-40311295D01*
X84451180Y-39406533D02*
X84451180Y-38787485D01*
X84832133Y-39120819D01*
X84832133Y-38977961D01*
X84879752Y-38882723D01*
X84927371Y-38835104D01*
X85022609Y-38787485D01*
X85260704Y-38787485D01*
X85355942Y-38835104D01*
X85403561Y-38882723D01*
X85451180Y-38977961D01*
X85451180Y-39263676D01*
X85403561Y-39358914D01*
X85355942Y-39406533D01*
X91780380Y-39689066D02*
X91304190Y-40022400D01*
X91780380Y-40260495D02*
X90780380Y-40260495D01*
X90780380Y-39879542D01*
X90828000Y-39784304D01*
X90875619Y-39736685D01*
X90970857Y-39689066D01*
X91113714Y-39689066D01*
X91208952Y-39736685D01*
X91256571Y-39784304D01*
X91304190Y-39879542D01*
X91304190Y-40260495D01*
X90875619Y-39308114D02*
X90828000Y-39260495D01*
X90780380Y-39165257D01*
X90780380Y-38927161D01*
X90828000Y-38831923D01*
X90875619Y-38784304D01*
X90970857Y-38736685D01*
X91066095Y-38736685D01*
X91208952Y-38784304D01*
X91780380Y-39355733D01*
X91780380Y-38736685D01*
X90378780Y-39587466D02*
X89902590Y-39920800D01*
X90378780Y-40158895D02*
X89378780Y-40158895D01*
X89378780Y-39777942D01*
X89426400Y-39682704D01*
X89474019Y-39635085D01*
X89569257Y-39587466D01*
X89712114Y-39587466D01*
X89807352Y-39635085D01*
X89854971Y-39682704D01*
X89902590Y-39777942D01*
X89902590Y-40158895D01*
X90378780Y-38635085D02*
X90378780Y-39206514D01*
X90378780Y-38920800D02*
X89378780Y-38920800D01*
X89521638Y-39016038D01*
X89616876Y-39111276D01*
X89664495Y-39206514D01*
X85681180Y-64973104D02*
X86490704Y-64973104D01*
X86585942Y-64925485D01*
X86633561Y-64877866D01*
X86681180Y-64782628D01*
X86681180Y-64592152D01*
X86633561Y-64496914D01*
X86585942Y-64449295D01*
X86490704Y-64401676D01*
X85681180Y-64401676D01*
X86014514Y-63496914D02*
X86681180Y-63496914D01*
X85633561Y-63735009D02*
X86347847Y-63973104D01*
X86347847Y-63354057D01*
X183257866Y-30389580D02*
X183257866Y-31103866D01*
X183210247Y-31246723D01*
X183115009Y-31341961D01*
X182972152Y-31389580D01*
X182876914Y-31389580D01*
X184257866Y-31389580D02*
X183686438Y-31389580D01*
X183972152Y-31389580D02*
X183972152Y-30389580D01*
X183876914Y-30532438D01*
X183781676Y-30627676D01*
X183686438Y-30675295D01*
X96999466Y-30084780D02*
X96999466Y-30799066D01*
X96951847Y-30941923D01*
X96856609Y-31037161D01*
X96713752Y-31084780D01*
X96618514Y-31084780D01*
X97428038Y-30180019D02*
X97475657Y-30132400D01*
X97570895Y-30084780D01*
X97808990Y-30084780D01*
X97904228Y-30132400D01*
X97951847Y-30180019D01*
X97999466Y-30275257D01*
X97999466Y-30370495D01*
X97951847Y-30513352D01*
X97380419Y-31084780D01*
X97999466Y-31084780D01*
M02*
