G04 #@! TF.GenerationSoftware,KiCad,Pcbnew,(5.1.5)-3*
G04 #@! TF.CreationDate,2020-06-08T21:14:36+01:00*
G04 #@! TF.ProjectId,MSXPI2,4d535850-4932-42e6-9b69-6361645f7063,rev?*
G04 #@! TF.SameCoordinates,Original*
G04 #@! TF.FileFunction,Copper,L2,Bot*
G04 #@! TF.FilePolarity,Positive*
%FSLAX46Y46*%
G04 Gerber Fmt 4.6, Leading zero omitted, Abs format (unit mm)*
G04 Created by KiCad (PCBNEW (5.1.5)-3) date 2020-06-08 21:14:36*
%MOMM*%
%LPD*%
G04 APERTURE LIST*
%ADD10R,1.800000X8.000000*%
%ADD11O,1.400000X1.400000*%
%ADD12C,1.400000*%
%ADD13C,1.800000*%
%ADD14R,1.800000X1.800000*%
%ADD15C,1.600000*%
%ADD16R,1.700000X1.700000*%
%ADD17O,1.700000X1.700000*%
%ADD18C,0.800000*%
%ADD19C,0.250000*%
G04 APERTURE END LIST*
D10*
X107939840Y-89507440D03*
X110479840Y-89507440D03*
X113019840Y-89507440D03*
X115559840Y-89507440D03*
X118099840Y-89507440D03*
X120639840Y-89507440D03*
X123179840Y-89507440D03*
X125719840Y-89507440D03*
X128259840Y-89507440D03*
X130799840Y-89507440D03*
X133339840Y-89507440D03*
X135879840Y-89507440D03*
X138419840Y-89507440D03*
X140959840Y-89507440D03*
X143499840Y-89507440D03*
X146039840Y-89507440D03*
X148579840Y-89507440D03*
X151119840Y-89507440D03*
X153659840Y-89507440D03*
X156199840Y-89507440D03*
X158739840Y-89507440D03*
X161279840Y-89507440D03*
X163819840Y-89507440D03*
X166359840Y-89507440D03*
X168899840Y-89507440D03*
D11*
X121869200Y-32346900D03*
D12*
X116789200Y-32346900D03*
D13*
X114160300Y-32143700D03*
D14*
X111620300Y-32143700D03*
D15*
X95859600Y-63489200D03*
X95859600Y-65989200D03*
X85496400Y-65695200D03*
X85496400Y-63195200D03*
D11*
X84328000Y-36982400D03*
D12*
X84328000Y-42062400D03*
D11*
X86918800Y-37033200D03*
D12*
X86918800Y-42113200D03*
D11*
X89408000Y-42062400D03*
D12*
X89408000Y-36982400D03*
D11*
X91846400Y-36880800D03*
D12*
X91846400Y-41960800D03*
D16*
X180644800Y-31648400D03*
D17*
X180644800Y-34188400D03*
X178104800Y-31648400D03*
X178104800Y-34188400D03*
X175564800Y-31648400D03*
X175564800Y-34188400D03*
X173024800Y-31648400D03*
X173024800Y-34188400D03*
X170484800Y-31648400D03*
X170484800Y-34188400D03*
X167944800Y-31648400D03*
X167944800Y-34188400D03*
X165404800Y-31648400D03*
X165404800Y-34188400D03*
X162864800Y-31648400D03*
X162864800Y-34188400D03*
X160324800Y-31648400D03*
X160324800Y-34188400D03*
X157784800Y-31648400D03*
X157784800Y-34188400D03*
X155244800Y-31648400D03*
X155244800Y-34188400D03*
X152704800Y-31648400D03*
X152704800Y-34188400D03*
X150164800Y-31648400D03*
X150164800Y-34188400D03*
X147624800Y-31648400D03*
X147624800Y-34188400D03*
X145084800Y-31648400D03*
X145084800Y-34188400D03*
X142544800Y-31648400D03*
X142544800Y-34188400D03*
X140004800Y-31648400D03*
X140004800Y-34188400D03*
X137464800Y-31648400D03*
X137464800Y-34188400D03*
X134924800Y-31648400D03*
X134924800Y-34188400D03*
X132384800Y-31648400D03*
X132384800Y-34188400D03*
D16*
X94488000Y-31496000D03*
D17*
X94488000Y-34036000D03*
X91948000Y-31496000D03*
X91948000Y-34036000D03*
X89408000Y-31496000D03*
X89408000Y-34036000D03*
X86868000Y-31496000D03*
X86868000Y-34036000D03*
X84328000Y-31496000D03*
X84328000Y-34036000D03*
D18*
X158254700Y-58851800D03*
X161624610Y-47071497D03*
X110439200Y-84035900D03*
X156476700Y-66687700D03*
X145757900Y-64884300D03*
X145821400Y-67017900D03*
X131597400Y-40030400D03*
X143167100Y-44348400D03*
X129692400Y-46164500D03*
X112388750Y-82086350D03*
X133565900Y-68389500D03*
X144322800Y-68389500D03*
X150774400Y-68389500D03*
X158381700Y-62623700D03*
X133221900Y-52527200D03*
X134924800Y-47078900D03*
X138049000Y-40081200D03*
X161886900Y-65265300D03*
X161937700Y-63893700D03*
X161798000Y-59601100D03*
X161696400Y-54571900D03*
X161823400Y-52451000D03*
X161607500Y-49580800D03*
X160921700Y-39928800D03*
X158394400Y-40043100D03*
X155879800Y-40068500D03*
X152019000Y-40043100D03*
X150685500Y-40081200D03*
X140614400Y-40017700D03*
X136677400Y-40068500D03*
X134239000Y-40043100D03*
X129768600Y-43624500D03*
X129705100Y-47294800D03*
X129743200Y-48653700D03*
X129755900Y-49974500D03*
X129755900Y-51257200D03*
X129819400Y-53759100D03*
X129844800Y-54965600D03*
X129819400Y-56286400D03*
X129781300Y-58813700D03*
X129781300Y-60083700D03*
X129730500Y-62649100D03*
X129679700Y-63881000D03*
X129705100Y-65201800D03*
X129679700Y-66433700D03*
X129679700Y-67716400D03*
X150710900Y-57950100D03*
X150647400Y-48526700D03*
X152019000Y-44056300D03*
X152387300Y-38214300D03*
X153835100Y-43992800D03*
X153797000Y-48514000D03*
X157886400Y-64554100D03*
D19*
X93123001Y-33661997D02*
X93123001Y-35604199D01*
X93123001Y-35604199D02*
X92546399Y-36180801D01*
X94488000Y-32296998D02*
X93123001Y-33661997D01*
X92546399Y-36180801D02*
X91846400Y-36880800D01*
X94488000Y-31496000D02*
X94488000Y-32296998D01*
X118527999Y-42899499D02*
X132040799Y-42899499D01*
X94752999Y-32860999D02*
X108489499Y-32860999D01*
X94488000Y-31496000D02*
X94488000Y-32596000D01*
X108489499Y-32860999D02*
X118527999Y-42899499D01*
X94488000Y-32596000D02*
X94752999Y-32860999D01*
X132040799Y-42899499D02*
X147967700Y-58826400D01*
X147967700Y-58826400D02*
X158229300Y-58826400D01*
X158229300Y-58826400D02*
X158254700Y-58851800D01*
X90107999Y-36282401D02*
X89408000Y-36982400D01*
X90583001Y-33661997D02*
X90583001Y-35807399D01*
X90583001Y-35807399D02*
X90107999Y-36282401D01*
X91948000Y-32296998D02*
X90583001Y-33661997D01*
X91948000Y-31496000D02*
X91948000Y-32296998D01*
X106774999Y-30320999D02*
X118903489Y-42449489D01*
X91948000Y-31496000D02*
X93123001Y-30320999D01*
X93123001Y-30320999D02*
X106774999Y-30320999D01*
X118903489Y-42449489D02*
X132467089Y-42449489D01*
X132467089Y-42449489D02*
X137490200Y-47472600D01*
X137490200Y-47472600D02*
X157772100Y-47472600D01*
X157772100Y-47472600D02*
X161223507Y-47472600D01*
X161223507Y-47472600D02*
X161624610Y-47071497D01*
X111869840Y-89507440D02*
X110479840Y-89507440D01*
X113019840Y-89507440D02*
X111869840Y-89507440D01*
X110479840Y-85257440D02*
X110477300Y-85254900D01*
X110479840Y-89507440D02*
X110479840Y-85257440D01*
X110477300Y-85254900D02*
X110477300Y-84074000D01*
X110477300Y-84074000D02*
X110439200Y-84035900D01*
X88708001Y-42762399D02*
X89408000Y-42062400D01*
X85496400Y-45974000D02*
X88708001Y-42762399D01*
X85496400Y-63195200D02*
X85496400Y-45974000D01*
X89408000Y-41072451D02*
X89408000Y-42062400D01*
X89408000Y-40512349D02*
X89408000Y-41072451D01*
X86918800Y-38023149D02*
X89408000Y-40512349D01*
X86918800Y-37033200D02*
X86918800Y-38023149D01*
X180644800Y-35390481D02*
X180644800Y-34188400D01*
X180644800Y-47580402D02*
X180644800Y-35390481D01*
X161137503Y-67087699D02*
X180644800Y-47580402D01*
X156876699Y-67087699D02*
X161137503Y-67087699D01*
X156476700Y-66687700D02*
X156876699Y-67087699D01*
X145757900Y-64884300D02*
X145757900Y-66954400D01*
X145757900Y-66954400D02*
X145821400Y-67017900D01*
X131597400Y-40030400D02*
X135915400Y-44348400D01*
X135915400Y-44348400D02*
X143167100Y-44348400D01*
X88558001Y-32345999D02*
X89408000Y-31496000D01*
X88232999Y-32671001D02*
X88558001Y-32345999D01*
X88232999Y-34410003D02*
X88232999Y-32671001D01*
X87432001Y-35211001D02*
X88232999Y-34410003D01*
X87223997Y-35211001D02*
X87432001Y-35211001D01*
X85893799Y-36541199D02*
X87223997Y-35211001D01*
X85893799Y-39081199D02*
X85893799Y-36541199D01*
X86918800Y-40106200D02*
X85893799Y-39081199D01*
X86918800Y-42113200D02*
X86918800Y-40106200D01*
X116709840Y-89507440D02*
X118099840Y-89507440D01*
X115559840Y-89507440D02*
X116709840Y-89507440D01*
X95565600Y-65695200D02*
X95859600Y-65989200D01*
X85496400Y-65695200D02*
X95565600Y-65695200D01*
X115559840Y-89507440D02*
X115559840Y-85257440D01*
X115559840Y-85257440D02*
X112388750Y-82086350D01*
X112388750Y-82086350D02*
X112166600Y-81864200D01*
X94488000Y-39319200D02*
X94488000Y-34036000D01*
X91846400Y-41960800D02*
X94488000Y-39319200D01*
X133565900Y-68389500D02*
X144322800Y-68389500D01*
X150774400Y-68389500D02*
X144322800Y-68389500D01*
X152615900Y-68389500D02*
X150774400Y-68389500D01*
X158381700Y-62623700D02*
X152615900Y-68389500D01*
X133965899Y-67989501D02*
X133565900Y-68389500D01*
X133965899Y-67976699D02*
X133965899Y-67989501D01*
X133934200Y-53239500D02*
X133934200Y-67945000D01*
X133934200Y-67945000D02*
X133965899Y-67976699D01*
X133221900Y-52527200D02*
X133934200Y-53239500D01*
X133221900Y-52527200D02*
X133221900Y-48781800D01*
X133221900Y-48781800D02*
X134924800Y-47078900D01*
X140004800Y-38125400D02*
X140004800Y-34188400D01*
X138049000Y-40081200D02*
X140004800Y-38125400D01*
X116586000Y-32143700D02*
X116789200Y-32346900D01*
X114160300Y-32143700D02*
X116586000Y-32143700D01*
X176929799Y-50222401D02*
X161886900Y-65265300D01*
X178104800Y-31648400D02*
X176929799Y-32823401D01*
X176929799Y-32823401D02*
X176929799Y-50222401D01*
X174389799Y-51441601D02*
X161937700Y-63893700D01*
X175564800Y-31648400D02*
X174389799Y-32823401D01*
X174389799Y-32823401D02*
X174389799Y-51441601D01*
X171849799Y-49549301D02*
X161798000Y-59601100D01*
X173024800Y-31648400D02*
X171849799Y-32823401D01*
X171849799Y-32823401D02*
X171849799Y-49549301D01*
X166769799Y-49498501D02*
X161696400Y-54571900D01*
X167944800Y-31648400D02*
X166769799Y-32823401D01*
X166769799Y-32823401D02*
X166769799Y-49498501D01*
X165404800Y-31648400D02*
X164229799Y-32823401D01*
X164229799Y-50044601D02*
X161823400Y-52451000D01*
X164229799Y-32823401D02*
X164229799Y-50044601D01*
X161689799Y-32823401D02*
X161689799Y-34752401D01*
X161689799Y-34752401D02*
X162864800Y-35927402D01*
X162864800Y-31648400D02*
X161689799Y-32823401D01*
X162864800Y-35927402D02*
X162864800Y-48323500D01*
X162864800Y-48323500D02*
X161607500Y-49580800D01*
X156609799Y-35616899D02*
X160921700Y-39928800D01*
X157784800Y-31648400D02*
X156609799Y-32823401D01*
X156609799Y-32823401D02*
X156609799Y-35616899D01*
X154069799Y-35718499D02*
X158394400Y-40043100D01*
X155244800Y-31648400D02*
X154069799Y-32823401D01*
X154069799Y-32823401D02*
X154069799Y-35718499D01*
X151529799Y-35718499D02*
X155879800Y-40068500D01*
X152704800Y-31648400D02*
X151529799Y-32823401D01*
X151529799Y-32823401D02*
X151529799Y-35718499D01*
X151740498Y-40043100D02*
X152019000Y-40043100D01*
X146449799Y-34752401D02*
X151740498Y-40043100D01*
X145084800Y-31648400D02*
X146449799Y-33013399D01*
X146449799Y-33013399D02*
X146449799Y-34752401D01*
X149238598Y-40081200D02*
X150685500Y-40081200D01*
X143909799Y-34752401D02*
X149238598Y-40081200D01*
X142544800Y-31648400D02*
X143909799Y-33013399D01*
X143909799Y-33013399D02*
X143909799Y-34752401D01*
X141179801Y-39452299D02*
X140614400Y-40017700D01*
X140004800Y-31648400D02*
X141179801Y-32823401D01*
X141179801Y-32823401D02*
X141179801Y-39452299D01*
X137464800Y-31648400D02*
X136289799Y-32823401D01*
X136289799Y-39680899D02*
X136677400Y-40068500D01*
X136289799Y-32823401D02*
X136289799Y-39680899D01*
X133749799Y-39553899D02*
X134239000Y-40043100D01*
X134924800Y-31648400D02*
X133749799Y-32823401D01*
X133749799Y-32823401D02*
X133749799Y-39553899D01*
X129202915Y-43624500D02*
X122643900Y-50183515D01*
X129768600Y-43624500D02*
X129202915Y-43624500D01*
X122643900Y-50183515D02*
X122643900Y-82638900D01*
X120639840Y-84642960D02*
X120639840Y-89507440D01*
X122643900Y-82638900D02*
X120639840Y-84642960D01*
X123179840Y-85257440D02*
X123179840Y-89507440D01*
X123179840Y-54144058D02*
X123179840Y-85257440D01*
X129705100Y-47618798D02*
X123179840Y-54144058D01*
X129705100Y-47294800D02*
X129705100Y-47618798D01*
X123879591Y-54517309D02*
X123879591Y-72534901D01*
X129743200Y-48653700D02*
X123879591Y-54517309D01*
X125719840Y-74375150D02*
X125719840Y-89507440D01*
X123879591Y-72534901D02*
X125719840Y-74375150D01*
X124329600Y-55400800D02*
X124329600Y-72348500D01*
X129755900Y-49974500D02*
X124329600Y-55400800D01*
X128259840Y-76278740D02*
X128259840Y-89507440D01*
X124329600Y-72348500D02*
X128259840Y-76278740D01*
X124779610Y-56233490D02*
X124779610Y-72138110D01*
X129755900Y-51257200D02*
X124779610Y-56233490D01*
X130799840Y-78158340D02*
X130799840Y-89507440D01*
X124779610Y-72138110D02*
X130799840Y-78158340D01*
X125229620Y-71737210D02*
X130200410Y-76708000D01*
X129819400Y-53759100D02*
X125229620Y-58348880D01*
X125229620Y-58348880D02*
X125229620Y-71737210D01*
X130200410Y-76708000D02*
X132803900Y-76708000D01*
X133339840Y-77243940D02*
X133339840Y-89507440D01*
X132803900Y-76708000D02*
X133339840Y-77243940D01*
X125679629Y-71550809D02*
X130341520Y-76212700D01*
X129844800Y-54965600D02*
X125679629Y-59130771D01*
X125679629Y-59130771D02*
X125679629Y-71550809D01*
X130341520Y-76212700D02*
X135216900Y-76212700D01*
X135879840Y-76875640D02*
X135879840Y-89507440D01*
X135216900Y-76212700D02*
X135879840Y-76875640D01*
X129819400Y-56286400D02*
X129253715Y-56286400D01*
X126129638Y-71364408D02*
X130488140Y-75722910D01*
X129253715Y-56286400D02*
X126129638Y-59410477D01*
X126129638Y-59410477D02*
X126129638Y-71364408D01*
X130488140Y-75722910D02*
X137381410Y-75722910D01*
X138419840Y-76761340D02*
X138419840Y-89507440D01*
X137381410Y-75722910D02*
X138419840Y-76761340D01*
X126579647Y-71178007D02*
X130674540Y-75272900D01*
X129781300Y-58813700D02*
X126579647Y-62015353D01*
X126579647Y-62015353D02*
X126579647Y-71178007D01*
X130674540Y-75272900D02*
X139750800Y-75272900D01*
X140959840Y-76481940D02*
X140959840Y-89507440D01*
X139750800Y-75272900D02*
X140959840Y-76481940D01*
X127029656Y-70991606D02*
X130839370Y-74801320D01*
X129781300Y-60083700D02*
X127029655Y-62835345D01*
X127029655Y-62835345D02*
X127029656Y-70991606D01*
X130839370Y-74801320D02*
X142289120Y-74801320D01*
X143499840Y-76012040D02*
X143499840Y-89507440D01*
X142289120Y-74801320D02*
X143499840Y-76012040D01*
X127479665Y-70805205D02*
X131025770Y-74351310D01*
X129730500Y-62649100D02*
X127479665Y-64899935D01*
X127479665Y-64899935D02*
X127479665Y-70805205D01*
X131025770Y-74351310D02*
X145280810Y-74351310D01*
X146039840Y-75110340D02*
X146039840Y-89507440D01*
X145280810Y-74351310D02*
X146039840Y-75110340D01*
X127929674Y-70618804D02*
X131212170Y-73901300D01*
X129679700Y-63881000D02*
X127929673Y-65631027D01*
X127929673Y-65631027D02*
X127929674Y-70618804D01*
X131212170Y-73901300D02*
X147929600Y-73901300D01*
X148579840Y-74551540D02*
X148579840Y-89507440D01*
X147929600Y-73901300D02*
X148579840Y-74551540D01*
X128379683Y-70432403D02*
X131364300Y-73417020D01*
X129705100Y-65201800D02*
X128379683Y-66527217D01*
X128379683Y-66527217D02*
X128379683Y-70432403D01*
X131364300Y-73417020D02*
X152614220Y-73417020D01*
X153659840Y-74462640D02*
X153659840Y-89507440D01*
X152614220Y-73417020D02*
X153659840Y-74462640D01*
X128829691Y-66718024D02*
X128829692Y-70246002D01*
X129679700Y-66433700D02*
X129114015Y-66433700D01*
X128829692Y-70246002D02*
X131550700Y-72967010D01*
X129114015Y-66433700D02*
X128829691Y-66718024D01*
X131550700Y-72967010D02*
X155148710Y-72967010D01*
X156199840Y-74018140D02*
X156199840Y-89507440D01*
X155148710Y-72967010D02*
X156199840Y-74018140D01*
X129279701Y-68116399D02*
X129279701Y-70059601D01*
X129679700Y-67716400D02*
X129279701Y-68116399D01*
X129279701Y-70059601D02*
X131737100Y-72517000D01*
X131737100Y-72517000D02*
X160362900Y-72517000D01*
X161279840Y-73433940D02*
X161279840Y-89507440D01*
X160362900Y-72517000D02*
X161279840Y-73433940D01*
X150710900Y-57950100D02*
X150710900Y-48590200D01*
X150710900Y-48590200D02*
X150647400Y-48526700D01*
X148474799Y-32498399D02*
X147624800Y-31648400D01*
X148799801Y-35750899D02*
X148799801Y-32823401D01*
X152744001Y-39695099D02*
X148799801Y-35750899D01*
X152744001Y-43331299D02*
X152744001Y-39695099D01*
X148799801Y-32823401D02*
X148474799Y-32498399D01*
X152019000Y-44056300D02*
X152744001Y-43331299D01*
X152387300Y-38214300D02*
X153835100Y-39662100D01*
X153835100Y-39662100D02*
X153835100Y-43992800D01*
X153797000Y-48514000D02*
X159969200Y-54686200D01*
X159969200Y-54686200D02*
X159969200Y-62471300D01*
X159969200Y-62471300D02*
X157886400Y-64554100D01*
M02*
